G04 #@! TF.FileFunction,Other,Fab,Top*
%FSLAX46Y46*%
G04 Gerber Fmt 4.6, Leading zero omitted, Abs format (unit mm)*
G04 Created by KiCad (PCBNEW 4.0.7) date 01/25/19 00:02:05*
%MOMM*%
%LPD*%
G01*
G04 APERTURE LIST*
%ADD10C,0.100000*%
%ADD11C,0.150000*%
%ADD12C,0.090000*%
G04 APERTURE END LIST*
D10*
X159500000Y-93345000D02*
X160250000Y-93345000D01*
X160250000Y-93345000D02*
X160250000Y-94615000D01*
X160250000Y-94615000D02*
X159250000Y-94615000D01*
X159250000Y-94615000D02*
X159250000Y-93595000D01*
X159250000Y-93595000D02*
X159500000Y-93345000D01*
X158550000Y-93780000D02*
X159250000Y-93780000D01*
X158550000Y-93780000D02*
X158550000Y-94180000D01*
X158550000Y-94180000D02*
X159250000Y-94180000D01*
X160250000Y-93780000D02*
X164250000Y-93780000D01*
X164250000Y-93780000D02*
X164250000Y-94180000D01*
X160250000Y-94180000D02*
X164250000Y-94180000D01*
X140220000Y-99695000D02*
X139470000Y-99695000D01*
X139470000Y-99695000D02*
X139470000Y-98425000D01*
X139470000Y-98425000D02*
X140470000Y-98425000D01*
X140470000Y-98425000D02*
X140470000Y-99445000D01*
X140470000Y-99445000D02*
X140220000Y-99695000D01*
X141170000Y-99260000D02*
X140470000Y-99260000D01*
X141170000Y-99260000D02*
X141170000Y-98860000D01*
X141170000Y-98860000D02*
X140470000Y-98860000D01*
X139470000Y-99260000D02*
X135470000Y-99260000D01*
X135470000Y-99260000D02*
X135470000Y-98860000D01*
X139470000Y-98860000D02*
X135470000Y-98860000D01*
X140220000Y-95885000D02*
X139470000Y-95885000D01*
X139470000Y-95885000D02*
X139470000Y-94615000D01*
X139470000Y-94615000D02*
X140470000Y-94615000D01*
X140470000Y-94615000D02*
X140470000Y-95635000D01*
X140470000Y-95635000D02*
X140220000Y-95885000D01*
X141170000Y-95450000D02*
X140470000Y-95450000D01*
X141170000Y-95450000D02*
X141170000Y-95050000D01*
X141170000Y-95050000D02*
X140470000Y-95050000D01*
X139470000Y-95450000D02*
X135470000Y-95450000D01*
X135470000Y-95450000D02*
X135470000Y-95050000D01*
X139470000Y-95050000D02*
X135470000Y-95050000D01*
X140220000Y-92075000D02*
X139470000Y-92075000D01*
X139470000Y-92075000D02*
X139470000Y-90805000D01*
X139470000Y-90805000D02*
X140470000Y-90805000D01*
X140470000Y-90805000D02*
X140470000Y-91825000D01*
X140470000Y-91825000D02*
X140220000Y-92075000D01*
X141170000Y-91640000D02*
X140470000Y-91640000D01*
X141170000Y-91640000D02*
X141170000Y-91240000D01*
X141170000Y-91240000D02*
X140470000Y-91240000D01*
X139470000Y-91640000D02*
X135470000Y-91640000D01*
X135470000Y-91640000D02*
X135470000Y-91240000D01*
X139470000Y-91240000D02*
X135470000Y-91240000D01*
X159500000Y-97155000D02*
X160250000Y-97155000D01*
X160250000Y-97155000D02*
X160250000Y-98425000D01*
X160250000Y-98425000D02*
X159250000Y-98425000D01*
X159250000Y-98425000D02*
X159250000Y-97405000D01*
X159250000Y-97405000D02*
X159500000Y-97155000D01*
X158550000Y-97590000D02*
X159250000Y-97590000D01*
X158550000Y-97590000D02*
X158550000Y-97990000D01*
X158550000Y-97990000D02*
X159250000Y-97990000D01*
X160250000Y-97590000D02*
X164250000Y-97590000D01*
X164250000Y-97590000D02*
X164250000Y-97990000D01*
X160250000Y-97990000D02*
X164250000Y-97990000D01*
X147685000Y-90170000D02*
X153035000Y-90170000D01*
X153035000Y-90170000D02*
X153035000Y-100330000D01*
X153035000Y-100330000D02*
X146685000Y-100330000D01*
X146685000Y-100330000D02*
X146685000Y-91170000D01*
X146685000Y-91170000D02*
X147685000Y-90170000D01*
X144780000Y-90110000D02*
X144780000Y-100390000D01*
X144780000Y-100390000D02*
X154940000Y-100390000D01*
X154940000Y-100390000D02*
X154940000Y-90110000D01*
X154940000Y-90110000D02*
X144780000Y-90110000D01*
D11*
X159420595Y-95686429D02*
X160182500Y-95686429D01*
X159801548Y-96067381D02*
X159801548Y-95305476D01*
X161182500Y-96067381D02*
X160611071Y-96067381D01*
X160896785Y-96067381D02*
X160896785Y-95067381D01*
X160801547Y-95210238D01*
X160706309Y-95305476D01*
X160611071Y-95353095D01*
X161563452Y-95162619D02*
X161611071Y-95115000D01*
X161706309Y-95067381D01*
X161944405Y-95067381D01*
X162039643Y-95115000D01*
X162087262Y-95162619D01*
X162134881Y-95257857D01*
X162134881Y-95353095D01*
X162087262Y-95495952D01*
X161515833Y-96067381D01*
X162134881Y-96067381D01*
X162420595Y-95067381D02*
X162753928Y-96067381D01*
X163087262Y-95067381D01*
D12*
X159792857Y-95265715D02*
X159792857Y-94808572D01*
X160021429Y-95037143D02*
X159564286Y-95037143D01*
X159421429Y-94608572D02*
X160021429Y-94408572D01*
X159421429Y-94208572D01*
X159992857Y-93751429D02*
X160021429Y-93808572D01*
X160021429Y-93922858D01*
X159992857Y-93980000D01*
X159964286Y-94008572D01*
X159907143Y-94037143D01*
X159735714Y-94037143D01*
X159678571Y-94008572D01*
X159650000Y-93980000D01*
X159621429Y-93922858D01*
X159621429Y-93808572D01*
X159650000Y-93751429D01*
X159992857Y-93237143D02*
X160021429Y-93294286D01*
X160021429Y-93408572D01*
X159992857Y-93465714D01*
X159964286Y-93494286D01*
X159907143Y-93522857D01*
X159735714Y-93522857D01*
X159678571Y-93494286D01*
X159650000Y-93465714D01*
X159621429Y-93408572D01*
X159621429Y-93294286D01*
X159650000Y-93237143D01*
X160021429Y-92665714D02*
X160021429Y-93008571D01*
X160021429Y-92837143D02*
X159421429Y-92837143D01*
X159507143Y-92894286D01*
X159564286Y-92951428D01*
X159592857Y-93008571D01*
D11*
X136775595Y-97496429D02*
X137537500Y-97496429D01*
X138537500Y-97877381D02*
X137966071Y-97877381D01*
X138251785Y-97877381D02*
X138251785Y-96877381D01*
X138156547Y-97020238D01*
X138061309Y-97115476D01*
X137966071Y-97163095D01*
X138918452Y-96972619D02*
X138966071Y-96925000D01*
X139061309Y-96877381D01*
X139299405Y-96877381D01*
X139394643Y-96925000D01*
X139442262Y-96972619D01*
X139489881Y-97067857D01*
X139489881Y-97163095D01*
X139442262Y-97305952D01*
X138870833Y-97877381D01*
X139489881Y-97877381D01*
X139775595Y-96877381D02*
X140108928Y-97877381D01*
X140442262Y-96877381D01*
D12*
X140012857Y-100345715D02*
X140012857Y-99888572D01*
X139641429Y-99688572D02*
X140241429Y-99488572D01*
X139641429Y-99288572D01*
X140212857Y-98831429D02*
X140241429Y-98888572D01*
X140241429Y-99002858D01*
X140212857Y-99060000D01*
X140184286Y-99088572D01*
X140127143Y-99117143D01*
X139955714Y-99117143D01*
X139898571Y-99088572D01*
X139870000Y-99060000D01*
X139841429Y-99002858D01*
X139841429Y-98888572D01*
X139870000Y-98831429D01*
X140212857Y-98317143D02*
X140241429Y-98374286D01*
X140241429Y-98488572D01*
X140212857Y-98545714D01*
X140184286Y-98574286D01*
X140127143Y-98602857D01*
X139955714Y-98602857D01*
X139898571Y-98574286D01*
X139870000Y-98545714D01*
X139841429Y-98488572D01*
X139841429Y-98374286D01*
X139870000Y-98317143D01*
X140241429Y-97745714D02*
X140241429Y-98088571D01*
X140241429Y-97917143D02*
X139641429Y-97917143D01*
X139727143Y-97974286D01*
X139784286Y-98031428D01*
X139812857Y-98088571D01*
D11*
X137894643Y-93115000D02*
X137799405Y-93067381D01*
X137656548Y-93067381D01*
X137513690Y-93115000D01*
X137418452Y-93210238D01*
X137370833Y-93305476D01*
X137323214Y-93495952D01*
X137323214Y-93638810D01*
X137370833Y-93829286D01*
X137418452Y-93924524D01*
X137513690Y-94019762D01*
X137656548Y-94067381D01*
X137751786Y-94067381D01*
X137894643Y-94019762D01*
X137942262Y-93972143D01*
X137942262Y-93638810D01*
X137751786Y-93638810D01*
X138370833Y-93400714D02*
X138370833Y-94067381D01*
X138370833Y-93495952D02*
X138418452Y-93448333D01*
X138513690Y-93400714D01*
X138656548Y-93400714D01*
X138751786Y-93448333D01*
X138799405Y-93543571D01*
X138799405Y-94067381D01*
X139704167Y-94067381D02*
X139704167Y-93067381D01*
X139704167Y-94019762D02*
X139608929Y-94067381D01*
X139418452Y-94067381D01*
X139323214Y-94019762D01*
X139275595Y-93972143D01*
X139227976Y-93876905D01*
X139227976Y-93591190D01*
X139275595Y-93495952D01*
X139323214Y-93448333D01*
X139418452Y-93400714D01*
X139608929Y-93400714D01*
X139704167Y-93448333D01*
D12*
X139670000Y-96650000D02*
X139641429Y-96707143D01*
X139641429Y-96792857D01*
X139670000Y-96878572D01*
X139727143Y-96935714D01*
X139784286Y-96964286D01*
X139898571Y-96992857D01*
X139984286Y-96992857D01*
X140098571Y-96964286D01*
X140155714Y-96935714D01*
X140212857Y-96878572D01*
X140241429Y-96792857D01*
X140241429Y-96735714D01*
X140212857Y-96650000D01*
X140184286Y-96621429D01*
X139984286Y-96621429D01*
X139984286Y-96735714D01*
X140241429Y-96364286D02*
X139841429Y-96364286D01*
X139955714Y-96364286D02*
X139898571Y-96335714D01*
X139870000Y-96307143D01*
X139841429Y-96250000D01*
X139841429Y-96192857D01*
X140241429Y-95907143D02*
X140212857Y-95964285D01*
X140184286Y-95992857D01*
X140127143Y-96021428D01*
X139955714Y-96021428D01*
X139898571Y-95992857D01*
X139870000Y-95964285D01*
X139841429Y-95907143D01*
X139841429Y-95821428D01*
X139870000Y-95764285D01*
X139898571Y-95735714D01*
X139955714Y-95707143D01*
X140127143Y-95707143D01*
X140184286Y-95735714D01*
X140212857Y-95764285D01*
X140241429Y-95821428D01*
X140241429Y-95907143D01*
X139841429Y-95192857D02*
X140241429Y-95192857D01*
X139841429Y-95450000D02*
X140155714Y-95450000D01*
X140212857Y-95421428D01*
X140241429Y-95364286D01*
X140241429Y-95278571D01*
X140212857Y-95221428D01*
X140184286Y-95192857D01*
X139841429Y-94907143D02*
X140241429Y-94907143D01*
X139898571Y-94907143D02*
X139870000Y-94878571D01*
X139841429Y-94821429D01*
X139841429Y-94735714D01*
X139870000Y-94678571D01*
X139927143Y-94650000D01*
X140241429Y-94650000D01*
X140241429Y-94107143D02*
X139641429Y-94107143D01*
X140212857Y-94107143D02*
X140241429Y-94164286D01*
X140241429Y-94278572D01*
X140212857Y-94335714D01*
X140184286Y-94364286D01*
X140127143Y-94392857D01*
X139955714Y-94392857D01*
X139898571Y-94364286D01*
X139870000Y-94335714D01*
X139841429Y-94278572D01*
X139841429Y-94164286D01*
X139870000Y-94107143D01*
X140241429Y-93507143D02*
X140241429Y-93850000D01*
X140241429Y-93678572D02*
X139641429Y-93678572D01*
X139727143Y-93735715D01*
X139784286Y-93792857D01*
X139812857Y-93850000D01*
D11*
X133727976Y-90209762D02*
X133823214Y-90257381D01*
X134013690Y-90257381D01*
X134108929Y-90209762D01*
X134156548Y-90114524D01*
X134156548Y-90066905D01*
X134108929Y-89971667D01*
X134013690Y-89924048D01*
X133870833Y-89924048D01*
X133775595Y-89876429D01*
X133727976Y-89781190D01*
X133727976Y-89733571D01*
X133775595Y-89638333D01*
X133870833Y-89590714D01*
X134013690Y-89590714D01*
X134108929Y-89638333D01*
X134585119Y-90257381D02*
X134585119Y-89590714D01*
X134585119Y-89257381D02*
X134537500Y-89305000D01*
X134585119Y-89352619D01*
X134632738Y-89305000D01*
X134585119Y-89257381D01*
X134585119Y-89352619D01*
X135061309Y-89590714D02*
X135061309Y-90257381D01*
X135061309Y-89685952D02*
X135108928Y-89638333D01*
X135204166Y-89590714D01*
X135347024Y-89590714D01*
X135442262Y-89638333D01*
X135489881Y-89733571D01*
X135489881Y-90257381D01*
X136347024Y-90209762D02*
X136251786Y-90257381D01*
X136061309Y-90257381D01*
X135966071Y-90209762D01*
X135918452Y-90114524D01*
X135918452Y-89733571D01*
X135966071Y-89638333D01*
X136061309Y-89590714D01*
X136251786Y-89590714D01*
X136347024Y-89638333D01*
X136394643Y-89733571D01*
X136394643Y-89828810D01*
X135918452Y-89924048D01*
X137537500Y-89352619D02*
X137585119Y-89305000D01*
X137680357Y-89257381D01*
X137918453Y-89257381D01*
X138013691Y-89305000D01*
X138061310Y-89352619D01*
X138108929Y-89447857D01*
X138108929Y-89543095D01*
X138061310Y-89685952D01*
X137489881Y-90257381D01*
X138108929Y-90257381D01*
X138394643Y-89257381D02*
X138727976Y-90257381D01*
X139061310Y-89257381D01*
X140680358Y-90257381D02*
X140108929Y-90257381D01*
X140394643Y-90257381D02*
X140394643Y-89257381D01*
X140299405Y-89400238D01*
X140204167Y-89495476D01*
X140108929Y-89543095D01*
X141108929Y-90257381D02*
X141108929Y-89257381D01*
X141204167Y-89876429D02*
X141489882Y-90257381D01*
X141489882Y-89590714D02*
X141108929Y-89971667D01*
X141918453Y-90257381D02*
X141918453Y-89257381D01*
X141918453Y-89733571D02*
X142489882Y-89733571D01*
X142489882Y-90257381D02*
X142489882Y-89257381D01*
X142870834Y-89590714D02*
X143394644Y-89590714D01*
X142870834Y-90257381D01*
X143394644Y-90257381D01*
D12*
X140241429Y-91725714D02*
X139641429Y-91725714D01*
X140241429Y-91125714D02*
X140241429Y-91468571D01*
X140241429Y-91297143D02*
X139641429Y-91297143D01*
X139727143Y-91354286D01*
X139784286Y-91411428D01*
X139812857Y-91468571D01*
D11*
X160468215Y-99782143D02*
X160420596Y-99829762D01*
X160277739Y-99877381D01*
X160182501Y-99877381D01*
X160039643Y-99829762D01*
X159944405Y-99734524D01*
X159896786Y-99639286D01*
X159849167Y-99448810D01*
X159849167Y-99305952D01*
X159896786Y-99115476D01*
X159944405Y-99020238D01*
X160039643Y-98925000D01*
X160182501Y-98877381D01*
X160277739Y-98877381D01*
X160420596Y-98925000D01*
X160468215Y-98972619D01*
X161468215Y-99877381D02*
X161134881Y-99401190D01*
X160896786Y-99877381D02*
X160896786Y-98877381D01*
X161277739Y-98877381D01*
X161372977Y-98925000D01*
X161420596Y-98972619D01*
X161468215Y-99067857D01*
X161468215Y-99210714D01*
X161420596Y-99305952D01*
X161372977Y-99353571D01*
X161277739Y-99401190D01*
X160896786Y-99401190D01*
X162087262Y-98877381D02*
X162277739Y-98877381D01*
X162372977Y-98925000D01*
X162468215Y-99020238D01*
X162515834Y-99210714D01*
X162515834Y-99544048D01*
X162468215Y-99734524D01*
X162372977Y-99829762D01*
X162277739Y-99877381D01*
X162087262Y-99877381D01*
X161992024Y-99829762D01*
X161896786Y-99734524D01*
X161849167Y-99544048D01*
X161849167Y-99210714D01*
X161896786Y-99020238D01*
X161992024Y-98925000D01*
X162087262Y-98877381D01*
D12*
X159421429Y-98132857D02*
X159421429Y-98018571D01*
X159450000Y-97961429D01*
X159507143Y-97904286D01*
X159621429Y-97875714D01*
X159821429Y-97875714D01*
X159935714Y-97904286D01*
X159992857Y-97961429D01*
X160021429Y-98018571D01*
X160021429Y-98132857D01*
X159992857Y-98190000D01*
X159935714Y-98247143D01*
X159821429Y-98275714D01*
X159621429Y-98275714D01*
X159507143Y-98247143D01*
X159450000Y-98190000D01*
X159421429Y-98132857D01*
X160021429Y-97304286D02*
X160021429Y-97647143D01*
X160021429Y-97475715D02*
X159421429Y-97475715D01*
X159507143Y-97532858D01*
X159564286Y-97590000D01*
X159592857Y-97647143D01*
D11*
X148169524Y-101842381D02*
X147693333Y-101842381D01*
X147693333Y-100842381D01*
X148502857Y-101842381D02*
X148502857Y-100842381D01*
X148836191Y-101556667D01*
X149169524Y-100842381D01*
X149169524Y-101842381D01*
X149550476Y-100842381D02*
X150217143Y-100842381D01*
X149788571Y-101842381D01*
X151026667Y-101175714D02*
X151026667Y-101842381D01*
X150788571Y-100794762D02*
X150550476Y-101509048D01*
X151169524Y-101509048D01*
X152074286Y-101842381D02*
X151502857Y-101842381D01*
X151788571Y-101842381D02*
X151788571Y-100842381D01*
X151693333Y-100985238D01*
X151598095Y-101080476D01*
X151502857Y-101128095D01*
X149098095Y-94702381D02*
X149098095Y-95511905D01*
X149145714Y-95607143D01*
X149193333Y-95654762D01*
X149288571Y-95702381D01*
X149479048Y-95702381D01*
X149574286Y-95654762D01*
X149621905Y-95607143D01*
X149669524Y-95511905D01*
X149669524Y-94702381D01*
X150669524Y-95702381D02*
X150098095Y-95702381D01*
X150383809Y-95702381D02*
X150383809Y-94702381D01*
X150288571Y-94845238D01*
X150193333Y-94940476D01*
X150098095Y-94988095D01*
M02*
