G04 #@! TF.FileFunction,Other,User*
%FSLAX46Y46*%
G04 Gerber Fmt 4.6, Leading zero omitted, Abs format (unit mm)*
G04 Created by KiCad (PCBNEW 4.0.7) date 01/25/19 00:02:05*
%MOMM*%
%LPD*%
G01*
G04 APERTURE LIST*
%ADD10C,0.100000*%
%ADD11C,0.050000*%
G04 APERTURE END LIST*
D10*
D11*
X157600000Y-92830000D02*
X157600000Y-95130000D01*
X157600000Y-95130000D02*
X164750000Y-95130000D01*
X164750000Y-95130000D02*
X164750000Y-92830000D01*
X164750000Y-92830000D02*
X157600000Y-92830000D01*
X142120000Y-100210000D02*
X142120000Y-97910000D01*
X142120000Y-97910000D02*
X134970000Y-97910000D01*
X134970000Y-97910000D02*
X134970000Y-100210000D01*
X134970000Y-100210000D02*
X142120000Y-100210000D01*
X142120000Y-96400000D02*
X142120000Y-94100000D01*
X142120000Y-94100000D02*
X134970000Y-94100000D01*
X134970000Y-94100000D02*
X134970000Y-96400000D01*
X134970000Y-96400000D02*
X142120000Y-96400000D01*
X142120000Y-92590000D02*
X142120000Y-90290000D01*
X142120000Y-90290000D02*
X134970000Y-90290000D01*
X134970000Y-90290000D02*
X134970000Y-92590000D01*
X134970000Y-92590000D02*
X142120000Y-92590000D01*
X157600000Y-96640000D02*
X157600000Y-98940000D01*
X157600000Y-98940000D02*
X164750000Y-98940000D01*
X164750000Y-98940000D02*
X164750000Y-96640000D01*
X164750000Y-96640000D02*
X157600000Y-96640000D01*
X144500000Y-89840000D02*
X144500000Y-100640000D01*
X144500000Y-100640000D02*
X155200000Y-100640000D01*
X155200000Y-100640000D02*
X155200000Y-89840000D01*
X155200000Y-89840000D02*
X144500000Y-89840000D01*
M02*
