G04 #@! TF.FileFunction,Other,Fab,Top*
%FSLAX46Y46*%
G04 Gerber Fmt 4.6, Leading zero omitted, Abs format (unit mm)*
G04 Created by KiCad (PCBNEW 4.0.7) date 01/25/19 00:29:59*
%MOMM*%
%LPD*%
G01*
G04 APERTURE LIST*
%ADD10C,0.100000*%
%ADD11C,0.150000*%
%ADD12C,0.090000*%
G04 APERTURE END LIST*
D10*
X163310000Y-84455000D02*
X164060000Y-84455000D01*
X164060000Y-84455000D02*
X164060000Y-85725000D01*
X164060000Y-85725000D02*
X163060000Y-85725000D01*
X163060000Y-85725000D02*
X163060000Y-84705000D01*
X163060000Y-84705000D02*
X163310000Y-84455000D01*
X162360000Y-84890000D02*
X163060000Y-84890000D01*
X162360000Y-84890000D02*
X162360000Y-85290000D01*
X162360000Y-85290000D02*
X163060000Y-85290000D01*
X164060000Y-84890000D02*
X168060000Y-84890000D01*
X168060000Y-84890000D02*
X168060000Y-85290000D01*
X164060000Y-85290000D02*
X168060000Y-85290000D01*
X141490000Y-94615000D02*
X140740000Y-94615000D01*
X140740000Y-94615000D02*
X140740000Y-93345000D01*
X140740000Y-93345000D02*
X141740000Y-93345000D01*
X141740000Y-93345000D02*
X141740000Y-94365000D01*
X141740000Y-94365000D02*
X141490000Y-94615000D01*
X142440000Y-94180000D02*
X141740000Y-94180000D01*
X142440000Y-94180000D02*
X142440000Y-93780000D01*
X142440000Y-93780000D02*
X141740000Y-93780000D01*
X140740000Y-94180000D02*
X136740000Y-94180000D01*
X136740000Y-94180000D02*
X136740000Y-93780000D01*
X140740000Y-93780000D02*
X136740000Y-93780000D01*
X141490000Y-88265000D02*
X140740000Y-88265000D01*
X140740000Y-88265000D02*
X140740000Y-86995000D01*
X140740000Y-86995000D02*
X141740000Y-86995000D01*
X141740000Y-86995000D02*
X141740000Y-88015000D01*
X141740000Y-88015000D02*
X141490000Y-88265000D01*
X142440000Y-87830000D02*
X141740000Y-87830000D01*
X142440000Y-87830000D02*
X142440000Y-87430000D01*
X142440000Y-87430000D02*
X141740000Y-87430000D01*
X140740000Y-87830000D02*
X136740000Y-87830000D01*
X136740000Y-87830000D02*
X136740000Y-87430000D01*
X140740000Y-87430000D02*
X136740000Y-87430000D01*
X163310000Y-93345000D02*
X164060000Y-93345000D01*
X164060000Y-93345000D02*
X164060000Y-94615000D01*
X164060000Y-94615000D02*
X163060000Y-94615000D01*
X163060000Y-94615000D02*
X163060000Y-93595000D01*
X163060000Y-93595000D02*
X163310000Y-93345000D01*
X162360000Y-93780000D02*
X163060000Y-93780000D01*
X162360000Y-93780000D02*
X162360000Y-94180000D01*
X162360000Y-94180000D02*
X163060000Y-94180000D01*
X164060000Y-93780000D02*
X168060000Y-93780000D01*
X168060000Y-93780000D02*
X168060000Y-94180000D01*
X164060000Y-94180000D02*
X168060000Y-94180000D01*
X163310000Y-89535000D02*
X164060000Y-89535000D01*
X164060000Y-89535000D02*
X164060000Y-90805000D01*
X164060000Y-90805000D02*
X163060000Y-90805000D01*
X163060000Y-90805000D02*
X163060000Y-89785000D01*
X163060000Y-89785000D02*
X163310000Y-89535000D01*
X162360000Y-89970000D02*
X163060000Y-89970000D01*
X162360000Y-89970000D02*
X162360000Y-90370000D01*
X162360000Y-90370000D02*
X163060000Y-90370000D01*
X164060000Y-89970000D02*
X168060000Y-89970000D01*
X168060000Y-89970000D02*
X168060000Y-90370000D01*
X164060000Y-90370000D02*
X168060000Y-90370000D01*
X147980000Y-97810000D02*
X147980000Y-100310000D01*
X147980000Y-100310000D02*
X154280000Y-100310000D01*
X154280000Y-100310000D02*
X154280000Y-97810000D01*
X154280000Y-97810000D02*
X147980000Y-97810000D01*
X147320000Y-99060000D02*
X147980000Y-99060000D01*
X154940000Y-99060000D02*
X154280000Y-99060000D01*
X153010000Y-82530000D02*
X153010000Y-80030000D01*
X153010000Y-80030000D02*
X146710000Y-80030000D01*
X146710000Y-80030000D02*
X146710000Y-82530000D01*
X146710000Y-82530000D02*
X153010000Y-82530000D01*
X153670000Y-81280000D02*
X153010000Y-81280000D01*
X146050000Y-81280000D02*
X146710000Y-81280000D01*
X148955000Y-85090000D02*
X154305000Y-85090000D01*
X154305000Y-85090000D02*
X154305000Y-95250000D01*
X154305000Y-95250000D02*
X147955000Y-95250000D01*
X147955000Y-95250000D02*
X147955000Y-86090000D01*
X147955000Y-86090000D02*
X148955000Y-85090000D01*
X146050000Y-85030000D02*
X146050000Y-95310000D01*
X146050000Y-95310000D02*
X156210000Y-95310000D01*
X156210000Y-95310000D02*
X156210000Y-85030000D01*
X156210000Y-85030000D02*
X146050000Y-85030000D01*
D11*
X163230595Y-86796429D02*
X163992500Y-86796429D01*
X163611548Y-87177381D02*
X163611548Y-86415476D01*
X164992500Y-87177381D02*
X164421071Y-87177381D01*
X164706785Y-87177381D02*
X164706785Y-86177381D01*
X164611547Y-86320238D01*
X164516309Y-86415476D01*
X164421071Y-86463095D01*
X165373452Y-86272619D02*
X165421071Y-86225000D01*
X165516309Y-86177381D01*
X165754405Y-86177381D01*
X165849643Y-86225000D01*
X165897262Y-86272619D01*
X165944881Y-86367857D01*
X165944881Y-86463095D01*
X165897262Y-86605952D01*
X165325833Y-87177381D01*
X165944881Y-87177381D01*
X166230595Y-86177381D02*
X166563928Y-87177381D01*
X166897262Y-86177381D01*
D12*
X163602857Y-86375715D02*
X163602857Y-85918572D01*
X163831429Y-86147143D02*
X163374286Y-86147143D01*
X163231429Y-85718572D02*
X163831429Y-85518572D01*
X163231429Y-85318572D01*
X163802857Y-84861429D02*
X163831429Y-84918572D01*
X163831429Y-85032858D01*
X163802857Y-85090000D01*
X163774286Y-85118572D01*
X163717143Y-85147143D01*
X163545714Y-85147143D01*
X163488571Y-85118572D01*
X163460000Y-85090000D01*
X163431429Y-85032858D01*
X163431429Y-84918572D01*
X163460000Y-84861429D01*
X163802857Y-84347143D02*
X163831429Y-84404286D01*
X163831429Y-84518572D01*
X163802857Y-84575714D01*
X163774286Y-84604286D01*
X163717143Y-84632857D01*
X163545714Y-84632857D01*
X163488571Y-84604286D01*
X163460000Y-84575714D01*
X163431429Y-84518572D01*
X163431429Y-84404286D01*
X163460000Y-84347143D01*
X163831429Y-83775714D02*
X163831429Y-84118571D01*
X163831429Y-83947143D02*
X163231429Y-83947143D01*
X163317143Y-84004286D01*
X163374286Y-84061428D01*
X163402857Y-84118571D01*
D11*
X138045595Y-92416429D02*
X138807500Y-92416429D01*
X139807500Y-92797381D02*
X139236071Y-92797381D01*
X139521785Y-92797381D02*
X139521785Y-91797381D01*
X139426547Y-91940238D01*
X139331309Y-92035476D01*
X139236071Y-92083095D01*
X140188452Y-91892619D02*
X140236071Y-91845000D01*
X140331309Y-91797381D01*
X140569405Y-91797381D01*
X140664643Y-91845000D01*
X140712262Y-91892619D01*
X140759881Y-91987857D01*
X140759881Y-92083095D01*
X140712262Y-92225952D01*
X140140833Y-92797381D01*
X140759881Y-92797381D01*
X141045595Y-91797381D02*
X141378928Y-92797381D01*
X141712262Y-91797381D01*
D12*
X141282857Y-95265715D02*
X141282857Y-94808572D01*
X140911429Y-94608572D02*
X141511429Y-94408572D01*
X140911429Y-94208572D01*
X141482857Y-93751429D02*
X141511429Y-93808572D01*
X141511429Y-93922858D01*
X141482857Y-93980000D01*
X141454286Y-94008572D01*
X141397143Y-94037143D01*
X141225714Y-94037143D01*
X141168571Y-94008572D01*
X141140000Y-93980000D01*
X141111429Y-93922858D01*
X141111429Y-93808572D01*
X141140000Y-93751429D01*
X141482857Y-93237143D02*
X141511429Y-93294286D01*
X141511429Y-93408572D01*
X141482857Y-93465714D01*
X141454286Y-93494286D01*
X141397143Y-93522857D01*
X141225714Y-93522857D01*
X141168571Y-93494286D01*
X141140000Y-93465714D01*
X141111429Y-93408572D01*
X141111429Y-93294286D01*
X141140000Y-93237143D01*
X141511429Y-92665714D02*
X141511429Y-93008571D01*
X141511429Y-92837143D02*
X140911429Y-92837143D01*
X140997143Y-92894286D01*
X141054286Y-92951428D01*
X141082857Y-93008571D01*
D11*
X139164643Y-85495000D02*
X139069405Y-85447381D01*
X138926548Y-85447381D01*
X138783690Y-85495000D01*
X138688452Y-85590238D01*
X138640833Y-85685476D01*
X138593214Y-85875952D01*
X138593214Y-86018810D01*
X138640833Y-86209286D01*
X138688452Y-86304524D01*
X138783690Y-86399762D01*
X138926548Y-86447381D01*
X139021786Y-86447381D01*
X139164643Y-86399762D01*
X139212262Y-86352143D01*
X139212262Y-86018810D01*
X139021786Y-86018810D01*
X139640833Y-85780714D02*
X139640833Y-86447381D01*
X139640833Y-85875952D02*
X139688452Y-85828333D01*
X139783690Y-85780714D01*
X139926548Y-85780714D01*
X140021786Y-85828333D01*
X140069405Y-85923571D01*
X140069405Y-86447381D01*
X140974167Y-86447381D02*
X140974167Y-85447381D01*
X140974167Y-86399762D02*
X140878929Y-86447381D01*
X140688452Y-86447381D01*
X140593214Y-86399762D01*
X140545595Y-86352143D01*
X140497976Y-86256905D01*
X140497976Y-85971190D01*
X140545595Y-85875952D01*
X140593214Y-85828333D01*
X140688452Y-85780714D01*
X140878929Y-85780714D01*
X140974167Y-85828333D01*
D12*
X140940000Y-89030000D02*
X140911429Y-89087143D01*
X140911429Y-89172857D01*
X140940000Y-89258572D01*
X140997143Y-89315714D01*
X141054286Y-89344286D01*
X141168571Y-89372857D01*
X141254286Y-89372857D01*
X141368571Y-89344286D01*
X141425714Y-89315714D01*
X141482857Y-89258572D01*
X141511429Y-89172857D01*
X141511429Y-89115714D01*
X141482857Y-89030000D01*
X141454286Y-89001429D01*
X141254286Y-89001429D01*
X141254286Y-89115714D01*
X141511429Y-88744286D02*
X141111429Y-88744286D01*
X141225714Y-88744286D02*
X141168571Y-88715714D01*
X141140000Y-88687143D01*
X141111429Y-88630000D01*
X141111429Y-88572857D01*
X141511429Y-88287143D02*
X141482857Y-88344285D01*
X141454286Y-88372857D01*
X141397143Y-88401428D01*
X141225714Y-88401428D01*
X141168571Y-88372857D01*
X141140000Y-88344285D01*
X141111429Y-88287143D01*
X141111429Y-88201428D01*
X141140000Y-88144285D01*
X141168571Y-88115714D01*
X141225714Y-88087143D01*
X141397143Y-88087143D01*
X141454286Y-88115714D01*
X141482857Y-88144285D01*
X141511429Y-88201428D01*
X141511429Y-88287143D01*
X141111429Y-87572857D02*
X141511429Y-87572857D01*
X141111429Y-87830000D02*
X141425714Y-87830000D01*
X141482857Y-87801428D01*
X141511429Y-87744286D01*
X141511429Y-87658571D01*
X141482857Y-87601428D01*
X141454286Y-87572857D01*
X141111429Y-87287143D02*
X141511429Y-87287143D01*
X141168571Y-87287143D02*
X141140000Y-87258571D01*
X141111429Y-87201429D01*
X141111429Y-87115714D01*
X141140000Y-87058571D01*
X141197143Y-87030000D01*
X141511429Y-87030000D01*
X141511429Y-86487143D02*
X140911429Y-86487143D01*
X141482857Y-86487143D02*
X141511429Y-86544286D01*
X141511429Y-86658572D01*
X141482857Y-86715714D01*
X141454286Y-86744286D01*
X141397143Y-86772857D01*
X141225714Y-86772857D01*
X141168571Y-86744286D01*
X141140000Y-86715714D01*
X141111429Y-86658572D01*
X141111429Y-86544286D01*
X141140000Y-86487143D01*
X141511429Y-85887143D02*
X141511429Y-86230000D01*
X141511429Y-86058572D02*
X140911429Y-86058572D01*
X140997143Y-86115715D01*
X141054286Y-86172857D01*
X141082857Y-86230000D01*
D11*
X160182976Y-96019762D02*
X160278214Y-96067381D01*
X160468690Y-96067381D01*
X160563929Y-96019762D01*
X160611548Y-95924524D01*
X160611548Y-95876905D01*
X160563929Y-95781667D01*
X160468690Y-95734048D01*
X160325833Y-95734048D01*
X160230595Y-95686429D01*
X160182976Y-95591190D01*
X160182976Y-95543571D01*
X160230595Y-95448333D01*
X160325833Y-95400714D01*
X160468690Y-95400714D01*
X160563929Y-95448333D01*
X161040119Y-96067381D02*
X161040119Y-95400714D01*
X161040119Y-95067381D02*
X160992500Y-95115000D01*
X161040119Y-95162619D01*
X161087738Y-95115000D01*
X161040119Y-95067381D01*
X161040119Y-95162619D01*
X161516309Y-95400714D02*
X161516309Y-96067381D01*
X161516309Y-95495952D02*
X161563928Y-95448333D01*
X161659166Y-95400714D01*
X161802024Y-95400714D01*
X161897262Y-95448333D01*
X161944881Y-95543571D01*
X161944881Y-96067381D01*
X162802024Y-96019762D02*
X162706786Y-96067381D01*
X162516309Y-96067381D01*
X162421071Y-96019762D01*
X162373452Y-95924524D01*
X162373452Y-95543571D01*
X162421071Y-95448333D01*
X162516309Y-95400714D01*
X162706786Y-95400714D01*
X162802024Y-95448333D01*
X162849643Y-95543571D01*
X162849643Y-95638810D01*
X162373452Y-95734048D01*
X163992500Y-95162619D02*
X164040119Y-95115000D01*
X164135357Y-95067381D01*
X164373453Y-95067381D01*
X164468691Y-95115000D01*
X164516310Y-95162619D01*
X164563929Y-95257857D01*
X164563929Y-95353095D01*
X164516310Y-95495952D01*
X163944881Y-96067381D01*
X164563929Y-96067381D01*
X164849643Y-95067381D02*
X165182976Y-96067381D01*
X165516310Y-95067381D01*
X167135358Y-96067381D02*
X166563929Y-96067381D01*
X166849643Y-96067381D02*
X166849643Y-95067381D01*
X166754405Y-95210238D01*
X166659167Y-95305476D01*
X166563929Y-95353095D01*
X167563929Y-96067381D02*
X167563929Y-95067381D01*
X167659167Y-95686429D02*
X167944882Y-96067381D01*
X167944882Y-95400714D02*
X167563929Y-95781667D01*
X168373453Y-96067381D02*
X168373453Y-95067381D01*
X168373453Y-95543571D02*
X168944882Y-95543571D01*
X168944882Y-96067381D02*
X168944882Y-95067381D01*
X169325834Y-95400714D02*
X169849644Y-95400714D01*
X169325834Y-96067381D01*
X169849644Y-96067381D01*
D12*
X163831429Y-94265714D02*
X163231429Y-94265714D01*
X163831429Y-93665714D02*
X163831429Y-94008571D01*
X163831429Y-93837143D02*
X163231429Y-93837143D01*
X163317143Y-93894286D01*
X163374286Y-93951428D01*
X163402857Y-94008571D01*
D11*
X164278215Y-92162143D02*
X164230596Y-92209762D01*
X164087739Y-92257381D01*
X163992501Y-92257381D01*
X163849643Y-92209762D01*
X163754405Y-92114524D01*
X163706786Y-92019286D01*
X163659167Y-91828810D01*
X163659167Y-91685952D01*
X163706786Y-91495476D01*
X163754405Y-91400238D01*
X163849643Y-91305000D01*
X163992501Y-91257381D01*
X164087739Y-91257381D01*
X164230596Y-91305000D01*
X164278215Y-91352619D01*
X165278215Y-92257381D02*
X164944881Y-91781190D01*
X164706786Y-92257381D02*
X164706786Y-91257381D01*
X165087739Y-91257381D01*
X165182977Y-91305000D01*
X165230596Y-91352619D01*
X165278215Y-91447857D01*
X165278215Y-91590714D01*
X165230596Y-91685952D01*
X165182977Y-91733571D01*
X165087739Y-91781190D01*
X164706786Y-91781190D01*
X165897262Y-91257381D02*
X166087739Y-91257381D01*
X166182977Y-91305000D01*
X166278215Y-91400238D01*
X166325834Y-91590714D01*
X166325834Y-91924048D01*
X166278215Y-92114524D01*
X166182977Y-92209762D01*
X166087739Y-92257381D01*
X165897262Y-92257381D01*
X165802024Y-92209762D01*
X165706786Y-92114524D01*
X165659167Y-91924048D01*
X165659167Y-91590714D01*
X165706786Y-91400238D01*
X165802024Y-91305000D01*
X165897262Y-91257381D01*
D12*
X163231429Y-90512857D02*
X163231429Y-90398571D01*
X163260000Y-90341429D01*
X163317143Y-90284286D01*
X163431429Y-90255714D01*
X163631429Y-90255714D01*
X163745714Y-90284286D01*
X163802857Y-90341429D01*
X163831429Y-90398571D01*
X163831429Y-90512857D01*
X163802857Y-90570000D01*
X163745714Y-90627143D01*
X163631429Y-90655714D01*
X163431429Y-90655714D01*
X163317143Y-90627143D01*
X163260000Y-90570000D01*
X163231429Y-90512857D01*
X163831429Y-89684286D02*
X163831429Y-90027143D01*
X163831429Y-89855715D02*
X163231429Y-89855715D01*
X163317143Y-89912858D01*
X163374286Y-89970000D01*
X163402857Y-90027143D01*
D11*
X149058572Y-101822381D02*
X148487143Y-101822381D01*
X148772857Y-101822381D02*
X148772857Y-100822381D01*
X148677619Y-100965238D01*
X148582381Y-101060476D01*
X148487143Y-101108095D01*
X149487143Y-101822381D02*
X149487143Y-100822381D01*
X149582381Y-101441429D02*
X149868096Y-101822381D01*
X149868096Y-101155714D02*
X149487143Y-101536667D01*
X151201429Y-101822381D02*
X151106191Y-101774762D01*
X151058572Y-101727143D01*
X151010953Y-101631905D01*
X151010953Y-101346190D01*
X151058572Y-101250952D01*
X151106191Y-101203333D01*
X151201429Y-101155714D01*
X151344287Y-101155714D01*
X151439525Y-101203333D01*
X151487144Y-101250952D01*
X151534763Y-101346190D01*
X151534763Y-101631905D01*
X151487144Y-101727143D01*
X151439525Y-101774762D01*
X151344287Y-101822381D01*
X151201429Y-101822381D01*
X151963334Y-101822381D02*
X151963334Y-100822381D01*
X152391906Y-101822381D02*
X152391906Y-101298571D01*
X152344287Y-101203333D01*
X152249049Y-101155714D01*
X152106191Y-101155714D01*
X152010953Y-101203333D01*
X151963334Y-101250952D01*
X152868096Y-101822381D02*
X152868096Y-101155714D01*
X152868096Y-101250952D02*
X152915715Y-101203333D01*
X153010953Y-101155714D01*
X153153811Y-101155714D01*
X153249049Y-101203333D01*
X153296668Y-101298571D01*
X153296668Y-101822381D01*
X153296668Y-101298571D02*
X153344287Y-101203333D01*
X153439525Y-101155714D01*
X153582382Y-101155714D01*
X153677620Y-101203333D01*
X153725239Y-101298571D01*
X153725239Y-101822381D01*
X147740953Y-78422381D02*
X147264762Y-78422381D01*
X147217143Y-78898571D01*
X147264762Y-78850952D01*
X147360000Y-78803333D01*
X147598096Y-78803333D01*
X147693334Y-78850952D01*
X147740953Y-78898571D01*
X147788572Y-78993810D01*
X147788572Y-79231905D01*
X147740953Y-79327143D01*
X147693334Y-79374762D01*
X147598096Y-79422381D01*
X147360000Y-79422381D01*
X147264762Y-79374762D01*
X147217143Y-79327143D01*
X148217143Y-79422381D02*
X148217143Y-78422381D01*
X148312381Y-79041429D02*
X148598096Y-79422381D01*
X148598096Y-78755714D02*
X148217143Y-79136667D01*
X149931429Y-79422381D02*
X149836191Y-79374762D01*
X149788572Y-79327143D01*
X149740953Y-79231905D01*
X149740953Y-78946190D01*
X149788572Y-78850952D01*
X149836191Y-78803333D01*
X149931429Y-78755714D01*
X150074287Y-78755714D01*
X150169525Y-78803333D01*
X150217144Y-78850952D01*
X150264763Y-78946190D01*
X150264763Y-79231905D01*
X150217144Y-79327143D01*
X150169525Y-79374762D01*
X150074287Y-79422381D01*
X149931429Y-79422381D01*
X150693334Y-79422381D02*
X150693334Y-78422381D01*
X151121906Y-79422381D02*
X151121906Y-78898571D01*
X151074287Y-78803333D01*
X150979049Y-78755714D01*
X150836191Y-78755714D01*
X150740953Y-78803333D01*
X150693334Y-78850952D01*
X151598096Y-79422381D02*
X151598096Y-78755714D01*
X151598096Y-78850952D02*
X151645715Y-78803333D01*
X151740953Y-78755714D01*
X151883811Y-78755714D01*
X151979049Y-78803333D01*
X152026668Y-78898571D01*
X152026668Y-79422381D01*
X152026668Y-78898571D02*
X152074287Y-78803333D01*
X152169525Y-78755714D01*
X152312382Y-78755714D01*
X152407620Y-78803333D01*
X152455239Y-78898571D01*
X152455239Y-79422381D01*
X149439524Y-96762381D02*
X148963333Y-96762381D01*
X148963333Y-95762381D01*
X149772857Y-96762381D02*
X149772857Y-95762381D01*
X150106191Y-96476667D01*
X150439524Y-95762381D01*
X150439524Y-96762381D01*
X150820476Y-95762381D02*
X151487143Y-95762381D01*
X151058571Y-96762381D01*
X152296667Y-96095714D02*
X152296667Y-96762381D01*
X152058571Y-95714762D02*
X151820476Y-96429048D01*
X152439524Y-96429048D01*
X153344286Y-96762381D02*
X152772857Y-96762381D01*
X153058571Y-96762381D02*
X153058571Y-95762381D01*
X152963333Y-95905238D01*
X152868095Y-96000476D01*
X152772857Y-96048095D01*
X150368095Y-89622381D02*
X150368095Y-90431905D01*
X150415714Y-90527143D01*
X150463333Y-90574762D01*
X150558571Y-90622381D01*
X150749048Y-90622381D01*
X150844286Y-90574762D01*
X150891905Y-90527143D01*
X150939524Y-90431905D01*
X150939524Y-89622381D01*
X151939524Y-90622381D02*
X151368095Y-90622381D01*
X151653809Y-90622381D02*
X151653809Y-89622381D01*
X151558571Y-89765238D01*
X151463333Y-89860476D01*
X151368095Y-89908095D01*
M02*
