G04 #@! TF.FileFunction,Copper,L2,Bot,Signal*
%FSLAX46Y46*%
G04 Gerber Fmt 4.6, Leading zero omitted, Abs format (unit mm)*
G04 Created by KiCad (PCBNEW 4.0.7) date 01/25/19 00:29:59*
%MOMM*%
%LPD*%
G01*
G04 APERTURE LIST*
%ADD10C,0.100000*%
%ADD11C,0.300000*%
%ADD12R,1.000000X1.000000*%
%ADD13C,1.600000*%
%ADD14O,1.600000X1.600000*%
%ADD15R,1.600000X1.600000*%
%ADD16C,0.750000*%
G04 APERTURE END LIST*
D10*
D11*
X161948571Y-99738571D02*
X161948571Y-98238571D01*
X159234285Y-99595714D02*
X159305714Y-99667143D01*
X159520000Y-99738571D01*
X159662857Y-99738571D01*
X159877142Y-99667143D01*
X160020000Y-99524286D01*
X160091428Y-99381429D01*
X160162857Y-99095714D01*
X160162857Y-98881429D01*
X160091428Y-98595714D01*
X160020000Y-98452857D01*
X159877142Y-98310000D01*
X159662857Y-98238571D01*
X159520000Y-98238571D01*
X159305714Y-98310000D01*
X159234285Y-98381429D01*
X157877142Y-99738571D02*
X158591428Y-99738571D01*
X158591428Y-98238571D01*
X161341428Y-79902857D02*
X161127142Y-79974286D01*
X161055714Y-80045714D01*
X160984285Y-80188571D01*
X160984285Y-80402857D01*
X161055714Y-80545714D01*
X161127142Y-80617143D01*
X161270000Y-80688571D01*
X161841428Y-80688571D01*
X161841428Y-79188571D01*
X161341428Y-79188571D01*
X161198571Y-79260000D01*
X161127142Y-79331429D01*
X161055714Y-79474286D01*
X161055714Y-79617143D01*
X161127142Y-79760000D01*
X161198571Y-79831429D01*
X161341428Y-79902857D01*
X161841428Y-79902857D01*
X160412857Y-79331429D02*
X160341428Y-79260000D01*
X160198571Y-79188571D01*
X159841428Y-79188571D01*
X159698571Y-79260000D01*
X159627142Y-79331429D01*
X159555714Y-79474286D01*
X159555714Y-79617143D01*
X159627142Y-79831429D01*
X160484285Y-80688571D01*
X159555714Y-80688571D01*
X159055714Y-79188571D02*
X158127143Y-79188571D01*
X158627143Y-79760000D01*
X158412857Y-79760000D01*
X158270000Y-79831429D01*
X158198571Y-79902857D01*
X158127143Y-80045714D01*
X158127143Y-80402857D01*
X158198571Y-80545714D01*
X158270000Y-80617143D01*
X158412857Y-80688571D01*
X158841429Y-80688571D01*
X158984286Y-80617143D01*
X159055714Y-80545714D01*
D12*
X162560000Y-85090000D03*
X142240000Y-93980000D03*
X142240000Y-87630000D03*
X162560000Y-93980000D03*
X162560000Y-90170000D03*
D13*
X147320000Y-99060000D03*
D14*
X154940000Y-99060000D03*
D13*
X153670000Y-81280000D03*
D14*
X146050000Y-81280000D03*
D15*
X147320000Y-86360000D03*
D14*
X154940000Y-93980000D03*
X147320000Y-88900000D03*
X154940000Y-91440000D03*
X147320000Y-91440000D03*
X154940000Y-88900000D03*
X147320000Y-93980000D03*
X154940000Y-86360000D03*
D16*
X154940000Y-88900000D02*
X158750000Y-88900000D01*
X158750000Y-88900000D02*
X162560000Y-85090000D01*
X142240000Y-93980000D02*
X147320000Y-93980000D01*
X142240000Y-87630000D02*
X143510000Y-87630000D01*
X143510000Y-87630000D02*
X147320000Y-91440000D01*
X162560000Y-93980000D02*
X158750000Y-93980000D01*
X154940000Y-97790000D02*
X154940000Y-99060000D01*
X158750000Y-93980000D02*
X154940000Y-97790000D01*
X153670000Y-81280000D02*
X153670000Y-83820000D01*
X151130000Y-87630000D02*
X154940000Y-91440000D01*
X151130000Y-86360000D02*
X151130000Y-87630000D01*
X153670000Y-83820000D02*
X151130000Y-86360000D01*
X154940000Y-91440000D02*
X161290000Y-91440000D01*
X161290000Y-91440000D02*
X162560000Y-90170000D01*
X147320000Y-99060000D02*
X149860000Y-96520000D01*
X149860000Y-93980000D02*
X149860000Y-88900000D01*
X149860000Y-96520000D02*
X149860000Y-93980000D01*
X146050000Y-81280000D02*
X149860000Y-85090000D01*
X149860000Y-88900000D02*
X147320000Y-88900000D01*
X149860000Y-85090000D02*
X149860000Y-88900000D01*
M02*
