G04 #@! TF.FileFunction,Legend,Top*
%FSLAX46Y46*%
G04 Gerber Fmt 4.6, Leading zero omitted, Abs format (unit mm)*
G04 Created by KiCad (PCBNEW 4.0.7) date 01/25/19 00:29:59*
%MOMM*%
%LPD*%
G01*
G04 APERTURE LIST*
%ADD10C,0.100000*%
%ADD11C,0.120000*%
%ADD12C,0.150000*%
G04 APERTURE END LIST*
D10*
D11*
X163320000Y-84395000D02*
X164120000Y-84395000D01*
X164120000Y-84395000D02*
X164120000Y-85785000D01*
X164120000Y-85785000D02*
X163320000Y-85785000D01*
X163320000Y-85785000D02*
X163320000Y-85709677D01*
X164120000Y-84830000D02*
X168120000Y-84830000D01*
X168120000Y-84830000D02*
X168120000Y-85350000D01*
X168120000Y-85350000D02*
X164120000Y-85350000D01*
X164120000Y-84890000D02*
X168120000Y-84890000D01*
X164120000Y-85010000D02*
X168120000Y-85010000D01*
X164120000Y-85130000D02*
X168120000Y-85130000D01*
X164120000Y-85250000D02*
X168120000Y-85250000D01*
X161800000Y-85090000D02*
X161800000Y-84330000D01*
X161800000Y-84330000D02*
X162560000Y-84330000D01*
X141480000Y-94675000D02*
X140680000Y-94675000D01*
X140680000Y-94675000D02*
X140680000Y-93285000D01*
X140680000Y-93285000D02*
X141480000Y-93285000D01*
X141480000Y-93285000D02*
X141480000Y-93360323D01*
X140680000Y-94240000D02*
X136680000Y-94240000D01*
X136680000Y-94240000D02*
X136680000Y-93720000D01*
X136680000Y-93720000D02*
X140680000Y-93720000D01*
X140680000Y-94180000D02*
X136680000Y-94180000D01*
X140680000Y-94060000D02*
X136680000Y-94060000D01*
X140680000Y-93940000D02*
X136680000Y-93940000D01*
X140680000Y-93820000D02*
X136680000Y-93820000D01*
X143000000Y-93980000D02*
X143000000Y-94740000D01*
X143000000Y-94740000D02*
X142240000Y-94740000D01*
X141480000Y-88325000D02*
X140680000Y-88325000D01*
X140680000Y-88325000D02*
X140680000Y-86935000D01*
X140680000Y-86935000D02*
X141480000Y-86935000D01*
X141480000Y-86935000D02*
X141480000Y-87010323D01*
X140680000Y-87890000D02*
X136680000Y-87890000D01*
X136680000Y-87890000D02*
X136680000Y-87370000D01*
X136680000Y-87370000D02*
X140680000Y-87370000D01*
X140680000Y-87830000D02*
X136680000Y-87830000D01*
X140680000Y-87710000D02*
X136680000Y-87710000D01*
X140680000Y-87590000D02*
X136680000Y-87590000D01*
X140680000Y-87470000D02*
X136680000Y-87470000D01*
X143000000Y-87630000D02*
X143000000Y-88390000D01*
X143000000Y-88390000D02*
X142240000Y-88390000D01*
X163320000Y-93285000D02*
X164120000Y-93285000D01*
X164120000Y-93285000D02*
X164120000Y-94675000D01*
X164120000Y-94675000D02*
X163320000Y-94675000D01*
X163320000Y-94675000D02*
X163320000Y-94599677D01*
X164120000Y-93720000D02*
X168120000Y-93720000D01*
X168120000Y-93720000D02*
X168120000Y-94240000D01*
X168120000Y-94240000D02*
X164120000Y-94240000D01*
X164120000Y-93780000D02*
X168120000Y-93780000D01*
X164120000Y-93900000D02*
X168120000Y-93900000D01*
X164120000Y-94020000D02*
X168120000Y-94020000D01*
X164120000Y-94140000D02*
X168120000Y-94140000D01*
X161800000Y-93980000D02*
X161800000Y-93220000D01*
X161800000Y-93220000D02*
X162560000Y-93220000D01*
X163320000Y-89475000D02*
X164120000Y-89475000D01*
X164120000Y-89475000D02*
X164120000Y-90865000D01*
X164120000Y-90865000D02*
X163320000Y-90865000D01*
X163320000Y-90865000D02*
X163320000Y-90789677D01*
X164120000Y-89910000D02*
X168120000Y-89910000D01*
X168120000Y-89910000D02*
X168120000Y-90430000D01*
X168120000Y-90430000D02*
X164120000Y-90430000D01*
X164120000Y-89970000D02*
X168120000Y-89970000D01*
X164120000Y-90090000D02*
X168120000Y-90090000D01*
X164120000Y-90210000D02*
X168120000Y-90210000D01*
X164120000Y-90330000D02*
X168120000Y-90330000D01*
X161800000Y-90170000D02*
X161800000Y-89410000D01*
X161800000Y-89410000D02*
X162560000Y-89410000D01*
X147920000Y-98080000D02*
X147920000Y-97750000D01*
X147920000Y-97750000D02*
X154340000Y-97750000D01*
X154340000Y-97750000D02*
X154340000Y-98080000D01*
X147920000Y-100040000D02*
X147920000Y-100370000D01*
X147920000Y-100370000D02*
X154340000Y-100370000D01*
X154340000Y-100370000D02*
X154340000Y-100040000D01*
X153070000Y-82260000D02*
X153070000Y-82590000D01*
X153070000Y-82590000D02*
X146650000Y-82590000D01*
X146650000Y-82590000D02*
X146650000Y-82260000D01*
X153070000Y-80300000D02*
X153070000Y-79970000D01*
X153070000Y-79970000D02*
X146650000Y-79970000D01*
X146650000Y-79970000D02*
X146650000Y-80300000D01*
X152130000Y-85030000D02*
G75*
G02X150130000Y-85030000I-1000000J0D01*
G01*
X150130000Y-85030000D02*
X148480000Y-85030000D01*
X148480000Y-85030000D02*
X148480000Y-95310000D01*
X148480000Y-95310000D02*
X153780000Y-95310000D01*
X153780000Y-95310000D02*
X153780000Y-85030000D01*
X153780000Y-85030000D02*
X152130000Y-85030000D01*
X145990000Y-84970000D02*
X145990000Y-95370000D01*
X145990000Y-95370000D02*
X156270000Y-95370000D01*
X156270000Y-95370000D02*
X156270000Y-84970000D01*
X156270000Y-84970000D02*
X145990000Y-84970000D01*
D12*
X162849643Y-83526429D02*
X163611548Y-83526429D01*
X163230596Y-83907381D02*
X163230596Y-83145476D01*
X163944881Y-82907381D02*
X164278214Y-83907381D01*
X164611548Y-82907381D01*
X165373453Y-83859762D02*
X165278215Y-83907381D01*
X165087738Y-83907381D01*
X164992500Y-83859762D01*
X164944881Y-83812143D01*
X164897262Y-83716905D01*
X164897262Y-83431190D01*
X164944881Y-83335952D01*
X164992500Y-83288333D01*
X165087738Y-83240714D01*
X165278215Y-83240714D01*
X165373453Y-83288333D01*
X166230596Y-83859762D02*
X166135358Y-83907381D01*
X165944881Y-83907381D01*
X165849643Y-83859762D01*
X165802024Y-83812143D01*
X165754405Y-83716905D01*
X165754405Y-83431190D01*
X165802024Y-83335952D01*
X165849643Y-83288333D01*
X165944881Y-83240714D01*
X166135358Y-83240714D01*
X166230596Y-83288333D01*
X167182977Y-83907381D02*
X166611548Y-83907381D01*
X166897262Y-83907381D02*
X166897262Y-82907381D01*
X166802024Y-83050238D01*
X166706786Y-83145476D01*
X166611548Y-83193095D01*
X137664643Y-95686429D02*
X138426548Y-95686429D01*
X138759881Y-95067381D02*
X139093214Y-96067381D01*
X139426548Y-95067381D01*
X140188453Y-96019762D02*
X140093215Y-96067381D01*
X139902738Y-96067381D01*
X139807500Y-96019762D01*
X139759881Y-95972143D01*
X139712262Y-95876905D01*
X139712262Y-95591190D01*
X139759881Y-95495952D01*
X139807500Y-95448333D01*
X139902738Y-95400714D01*
X140093215Y-95400714D01*
X140188453Y-95448333D01*
X141045596Y-96019762D02*
X140950358Y-96067381D01*
X140759881Y-96067381D01*
X140664643Y-96019762D01*
X140617024Y-95972143D01*
X140569405Y-95876905D01*
X140569405Y-95591190D01*
X140617024Y-95495952D01*
X140664643Y-95448333D01*
X140759881Y-95400714D01*
X140950358Y-95400714D01*
X141045596Y-95448333D01*
X141997977Y-96067381D02*
X141426548Y-96067381D01*
X141712262Y-96067381D02*
X141712262Y-95067381D01*
X141617024Y-95210238D01*
X141521786Y-95305476D01*
X141426548Y-95353095D01*
X137474167Y-88765000D02*
X137378929Y-88717381D01*
X137236072Y-88717381D01*
X137093214Y-88765000D01*
X136997976Y-88860238D01*
X136950357Y-88955476D01*
X136902738Y-89145952D01*
X136902738Y-89288810D01*
X136950357Y-89479286D01*
X136997976Y-89574524D01*
X137093214Y-89669762D01*
X137236072Y-89717381D01*
X137331310Y-89717381D01*
X137474167Y-89669762D01*
X137521786Y-89622143D01*
X137521786Y-89288810D01*
X137331310Y-89288810D01*
X137950357Y-89717381D02*
X137950357Y-89050714D01*
X137950357Y-89241190D02*
X137997976Y-89145952D01*
X138045595Y-89098333D01*
X138140833Y-89050714D01*
X138236072Y-89050714D01*
X138712262Y-89717381D02*
X138617024Y-89669762D01*
X138569405Y-89622143D01*
X138521786Y-89526905D01*
X138521786Y-89241190D01*
X138569405Y-89145952D01*
X138617024Y-89098333D01*
X138712262Y-89050714D01*
X138855120Y-89050714D01*
X138950358Y-89098333D01*
X138997977Y-89145952D01*
X139045596Y-89241190D01*
X139045596Y-89526905D01*
X138997977Y-89622143D01*
X138950358Y-89669762D01*
X138855120Y-89717381D01*
X138712262Y-89717381D01*
X139902739Y-89050714D02*
X139902739Y-89717381D01*
X139474167Y-89050714D02*
X139474167Y-89574524D01*
X139521786Y-89669762D01*
X139617024Y-89717381D01*
X139759882Y-89717381D01*
X139855120Y-89669762D01*
X139902739Y-89622143D01*
X140378929Y-89050714D02*
X140378929Y-89717381D01*
X140378929Y-89145952D02*
X140426548Y-89098333D01*
X140521786Y-89050714D01*
X140664644Y-89050714D01*
X140759882Y-89098333D01*
X140807501Y-89193571D01*
X140807501Y-89717381D01*
X141712263Y-89717381D02*
X141712263Y-88717381D01*
X141712263Y-89669762D02*
X141617025Y-89717381D01*
X141426548Y-89717381D01*
X141331310Y-89669762D01*
X141283691Y-89622143D01*
X141236072Y-89526905D01*
X141236072Y-89241190D01*
X141283691Y-89145952D01*
X141331310Y-89098333D01*
X141426548Y-89050714D01*
X141617025Y-89050714D01*
X141712263Y-89098333D01*
X142712263Y-89717381D02*
X142140834Y-89717381D01*
X142426548Y-89717381D02*
X142426548Y-88717381D01*
X142331310Y-88860238D01*
X142236072Y-88955476D01*
X142140834Y-89003095D01*
X164516310Y-92797381D02*
X164516310Y-91797381D01*
X165516310Y-92797381D02*
X164944881Y-92797381D01*
X165230595Y-92797381D02*
X165230595Y-91797381D01*
X165135357Y-91940238D01*
X165040119Y-92035476D01*
X164944881Y-92083095D01*
X164421071Y-87987381D02*
X164611548Y-87987381D01*
X164706786Y-88035000D01*
X164802024Y-88130238D01*
X164849643Y-88320714D01*
X164849643Y-88654048D01*
X164802024Y-88844524D01*
X164706786Y-88939762D01*
X164611548Y-88987381D01*
X164421071Y-88987381D01*
X164325833Y-88939762D01*
X164230595Y-88844524D01*
X164182976Y-88654048D01*
X164182976Y-88320714D01*
X164230595Y-88130238D01*
X164325833Y-88035000D01*
X164421071Y-87987381D01*
X165802024Y-88987381D02*
X165230595Y-88987381D01*
X165516309Y-88987381D02*
X165516309Y-87987381D01*
X165421071Y-88130238D01*
X165325833Y-88225476D01*
X165230595Y-88273095D01*
X150963334Y-97202381D02*
X150630000Y-96726190D01*
X150391905Y-97202381D02*
X150391905Y-96202381D01*
X150772858Y-96202381D01*
X150868096Y-96250000D01*
X150915715Y-96297619D01*
X150963334Y-96392857D01*
X150963334Y-96535714D01*
X150915715Y-96630952D01*
X150868096Y-96678571D01*
X150772858Y-96726190D01*
X150391905Y-96726190D01*
X151915715Y-97202381D02*
X151344286Y-97202381D01*
X151630000Y-97202381D02*
X151630000Y-96202381D01*
X151534762Y-96345238D01*
X151439524Y-96440476D01*
X151344286Y-96488095D01*
X149407619Y-84042381D02*
X149074285Y-83566190D01*
X148836190Y-84042381D02*
X148836190Y-83042381D01*
X149217143Y-83042381D01*
X149312381Y-83090000D01*
X149360000Y-83137619D01*
X149407619Y-83232857D01*
X149407619Y-83375714D01*
X149360000Y-83470952D01*
X149312381Y-83518571D01*
X149217143Y-83566190D01*
X148836190Y-83566190D01*
X149693333Y-83375714D02*
X150074285Y-83375714D01*
X149836190Y-84042381D02*
X149836190Y-83185238D01*
X149883809Y-83090000D01*
X149979047Y-83042381D01*
X150074285Y-83042381D01*
X150931429Y-84042381D02*
X150360000Y-84042381D01*
X150645714Y-84042381D02*
X150645714Y-83042381D01*
X150550476Y-83185238D01*
X150455238Y-83280476D01*
X150360000Y-83328095D01*
X150368095Y-83482381D02*
X150368095Y-84291905D01*
X150415714Y-84387143D01*
X150463333Y-84434762D01*
X150558571Y-84482381D01*
X150749048Y-84482381D01*
X150844286Y-84434762D01*
X150891905Y-84387143D01*
X150939524Y-84291905D01*
X150939524Y-83482381D01*
X151939524Y-84482381D02*
X151368095Y-84482381D01*
X151653809Y-84482381D02*
X151653809Y-83482381D01*
X151558571Y-83625238D01*
X151463333Y-83720476D01*
X151368095Y-83768095D01*
M02*
