G04 #@! TF.FileFunction,Other,User*
%FSLAX46Y46*%
G04 Gerber Fmt 4.6, Leading zero omitted, Abs format (unit mm)*
G04 Created by KiCad (PCBNEW 4.0.7) date 01/25/19 00:29:59*
%MOMM*%
%LPD*%
G01*
G04 APERTURE LIST*
%ADD10C,0.100000*%
%ADD11C,0.050000*%
G04 APERTURE END LIST*
D10*
D11*
X161410000Y-83940000D02*
X161410000Y-86240000D01*
X161410000Y-86240000D02*
X168560000Y-86240000D01*
X168560000Y-86240000D02*
X168560000Y-83940000D01*
X168560000Y-83940000D02*
X161410000Y-83940000D01*
X143390000Y-95130000D02*
X143390000Y-92830000D01*
X143390000Y-92830000D02*
X136240000Y-92830000D01*
X136240000Y-92830000D02*
X136240000Y-95130000D01*
X136240000Y-95130000D02*
X143390000Y-95130000D01*
X143390000Y-88780000D02*
X143390000Y-86480000D01*
X143390000Y-86480000D02*
X136240000Y-86480000D01*
X136240000Y-86480000D02*
X136240000Y-88780000D01*
X136240000Y-88780000D02*
X143390000Y-88780000D01*
X161410000Y-92830000D02*
X161410000Y-95130000D01*
X161410000Y-95130000D02*
X168560000Y-95130000D01*
X168560000Y-95130000D02*
X168560000Y-92830000D01*
X168560000Y-92830000D02*
X161410000Y-92830000D01*
X161410000Y-89020000D02*
X161410000Y-91320000D01*
X161410000Y-91320000D02*
X168560000Y-91320000D01*
X168560000Y-91320000D02*
X168560000Y-89020000D01*
X168560000Y-89020000D02*
X161410000Y-89020000D01*
X146270000Y-97460000D02*
X146270000Y-100660000D01*
X146270000Y-100660000D02*
X156020000Y-100660000D01*
X156020000Y-100660000D02*
X156020000Y-97460000D01*
X156020000Y-97460000D02*
X146270000Y-97460000D01*
X154720000Y-82880000D02*
X154720000Y-79680000D01*
X154720000Y-79680000D02*
X144970000Y-79680000D01*
X144970000Y-79680000D02*
X144970000Y-82880000D01*
X144970000Y-82880000D02*
X154720000Y-82880000D01*
X145770000Y-84760000D02*
X145770000Y-95560000D01*
X145770000Y-95560000D02*
X156470000Y-95560000D01*
X156470000Y-95560000D02*
X156470000Y-84760000D01*
X156470000Y-84760000D02*
X145770000Y-84760000D01*
M02*
