G04 #@! TF.FileFunction,Legend,Top*
%FSLAX46Y46*%
G04 Gerber Fmt 4.6, Leading zero omitted, Abs format (unit mm)*
G04 Created by KiCad (PCBNEW 4.0.7) date 01/25/19 00:49:24*
%MOMM*%
%LPD*%
G01*
G04 APERTURE LIST*
%ADD10C,0.100000*%
%ADD11C,0.120000*%
%ADD12C,0.150000*%
G04 APERTURE END LIST*
D10*
D11*
X160780000Y-88205000D02*
X161580000Y-88205000D01*
X161580000Y-88205000D02*
X161580000Y-89595000D01*
X161580000Y-89595000D02*
X160780000Y-89595000D01*
X160780000Y-89595000D02*
X160780000Y-89519677D01*
X161580000Y-88640000D02*
X165580000Y-88640000D01*
X165580000Y-88640000D02*
X165580000Y-89160000D01*
X165580000Y-89160000D02*
X161580000Y-89160000D01*
X161580000Y-88700000D02*
X165580000Y-88700000D01*
X161580000Y-88820000D02*
X165580000Y-88820000D01*
X161580000Y-88940000D02*
X165580000Y-88940000D01*
X161580000Y-89060000D02*
X165580000Y-89060000D01*
X159260000Y-88900000D02*
X159260000Y-88140000D01*
X159260000Y-88140000D02*
X160020000Y-88140000D01*
X141480000Y-95945000D02*
X140680000Y-95945000D01*
X140680000Y-95945000D02*
X140680000Y-94555000D01*
X140680000Y-94555000D02*
X141480000Y-94555000D01*
X141480000Y-94555000D02*
X141480000Y-94630323D01*
X140680000Y-95510000D02*
X136680000Y-95510000D01*
X136680000Y-95510000D02*
X136680000Y-94990000D01*
X136680000Y-94990000D02*
X140680000Y-94990000D01*
X140680000Y-95450000D02*
X136680000Y-95450000D01*
X140680000Y-95330000D02*
X136680000Y-95330000D01*
X140680000Y-95210000D02*
X136680000Y-95210000D01*
X140680000Y-95090000D02*
X136680000Y-95090000D01*
X143000000Y-95250000D02*
X143000000Y-96010000D01*
X143000000Y-96010000D02*
X142240000Y-96010000D01*
X141480000Y-90865000D02*
X140680000Y-90865000D01*
X140680000Y-90865000D02*
X140680000Y-89475000D01*
X140680000Y-89475000D02*
X141480000Y-89475000D01*
X141480000Y-89475000D02*
X141480000Y-89550323D01*
X140680000Y-90430000D02*
X136680000Y-90430000D01*
X136680000Y-90430000D02*
X136680000Y-89910000D01*
X136680000Y-89910000D02*
X140680000Y-89910000D01*
X140680000Y-90370000D02*
X136680000Y-90370000D01*
X140680000Y-90250000D02*
X136680000Y-90250000D01*
X140680000Y-90130000D02*
X136680000Y-90130000D01*
X140680000Y-90010000D02*
X136680000Y-90010000D01*
X143000000Y-90170000D02*
X143000000Y-90930000D01*
X143000000Y-90930000D02*
X142240000Y-90930000D01*
X160780000Y-95825000D02*
X161580000Y-95825000D01*
X161580000Y-95825000D02*
X161580000Y-97215000D01*
X161580000Y-97215000D02*
X160780000Y-97215000D01*
X160780000Y-97215000D02*
X160780000Y-97139677D01*
X161580000Y-96260000D02*
X165580000Y-96260000D01*
X165580000Y-96260000D02*
X165580000Y-96780000D01*
X165580000Y-96780000D02*
X161580000Y-96780000D01*
X161580000Y-96320000D02*
X165580000Y-96320000D01*
X161580000Y-96440000D02*
X165580000Y-96440000D01*
X161580000Y-96560000D02*
X165580000Y-96560000D01*
X161580000Y-96680000D02*
X165580000Y-96680000D01*
X159260000Y-96520000D02*
X159260000Y-95760000D01*
X159260000Y-95760000D02*
X160020000Y-95760000D01*
X160780000Y-92015000D02*
X161580000Y-92015000D01*
X161580000Y-92015000D02*
X161580000Y-93405000D01*
X161580000Y-93405000D02*
X160780000Y-93405000D01*
X160780000Y-93405000D02*
X160780000Y-93329677D01*
X161580000Y-92450000D02*
X165580000Y-92450000D01*
X165580000Y-92450000D02*
X165580000Y-92970000D01*
X165580000Y-92970000D02*
X161580000Y-92970000D01*
X161580000Y-92510000D02*
X165580000Y-92510000D01*
X161580000Y-92630000D02*
X165580000Y-92630000D01*
X161580000Y-92750000D02*
X165580000Y-92750000D01*
X161580000Y-92870000D02*
X165580000Y-92870000D01*
X159260000Y-92710000D02*
X159260000Y-91950000D01*
X159260000Y-91950000D02*
X160020000Y-91950000D01*
X144110000Y-100620000D02*
X144110000Y-100290000D01*
X144110000Y-100290000D02*
X150530000Y-100290000D01*
X150530000Y-100290000D02*
X150530000Y-100620000D01*
X144110000Y-102580000D02*
X144110000Y-102910000D01*
X144110000Y-102910000D02*
X150530000Y-102910000D01*
X150530000Y-102910000D02*
X150530000Y-102580000D01*
X151800000Y-84800000D02*
X151800000Y-85130000D01*
X151800000Y-85130000D02*
X145380000Y-85130000D01*
X145380000Y-85130000D02*
X145380000Y-84800000D01*
X151800000Y-82840000D02*
X151800000Y-82510000D01*
X151800000Y-82510000D02*
X145380000Y-82510000D01*
X145380000Y-82510000D02*
X145380000Y-82840000D01*
X152130000Y-87570000D02*
G75*
G02X150130000Y-87570000I-1000000J0D01*
G01*
X150130000Y-87570000D02*
X148480000Y-87570000D01*
X148480000Y-87570000D02*
X148480000Y-97850000D01*
X148480000Y-97850000D02*
X153780000Y-97850000D01*
X153780000Y-97850000D02*
X153780000Y-87570000D01*
X153780000Y-87570000D02*
X152130000Y-87570000D01*
X145990000Y-87510000D02*
X145990000Y-97910000D01*
X145990000Y-97910000D02*
X156270000Y-97910000D01*
X156270000Y-97910000D02*
X156270000Y-87510000D01*
X156270000Y-87510000D02*
X145990000Y-87510000D01*
D12*
X160309643Y-87336429D02*
X161071548Y-87336429D01*
X160690596Y-87717381D02*
X160690596Y-86955476D01*
X161404881Y-86717381D02*
X161738214Y-87717381D01*
X162071548Y-86717381D01*
X162833453Y-87669762D02*
X162738215Y-87717381D01*
X162547738Y-87717381D01*
X162452500Y-87669762D01*
X162404881Y-87622143D01*
X162357262Y-87526905D01*
X162357262Y-87241190D01*
X162404881Y-87145952D01*
X162452500Y-87098333D01*
X162547738Y-87050714D01*
X162738215Y-87050714D01*
X162833453Y-87098333D01*
X163690596Y-87669762D02*
X163595358Y-87717381D01*
X163404881Y-87717381D01*
X163309643Y-87669762D01*
X163262024Y-87622143D01*
X163214405Y-87526905D01*
X163214405Y-87241190D01*
X163262024Y-87145952D01*
X163309643Y-87098333D01*
X163404881Y-87050714D01*
X163595358Y-87050714D01*
X163690596Y-87098333D01*
X164642977Y-87717381D02*
X164071548Y-87717381D01*
X164357262Y-87717381D02*
X164357262Y-86717381D01*
X164262024Y-86860238D01*
X164166786Y-86955476D01*
X164071548Y-87003095D01*
X137664643Y-96956429D02*
X138426548Y-96956429D01*
X138759881Y-96337381D02*
X139093214Y-97337381D01*
X139426548Y-96337381D01*
X140188453Y-97289762D02*
X140093215Y-97337381D01*
X139902738Y-97337381D01*
X139807500Y-97289762D01*
X139759881Y-97242143D01*
X139712262Y-97146905D01*
X139712262Y-96861190D01*
X139759881Y-96765952D01*
X139807500Y-96718333D01*
X139902738Y-96670714D01*
X140093215Y-96670714D01*
X140188453Y-96718333D01*
X141045596Y-97289762D02*
X140950358Y-97337381D01*
X140759881Y-97337381D01*
X140664643Y-97289762D01*
X140617024Y-97242143D01*
X140569405Y-97146905D01*
X140569405Y-96861190D01*
X140617024Y-96765952D01*
X140664643Y-96718333D01*
X140759881Y-96670714D01*
X140950358Y-96670714D01*
X141045596Y-96718333D01*
X141997977Y-97337381D02*
X141426548Y-97337381D01*
X141712262Y-97337381D02*
X141712262Y-96337381D01*
X141617024Y-96480238D01*
X141521786Y-96575476D01*
X141426548Y-96623095D01*
X137474167Y-91305000D02*
X137378929Y-91257381D01*
X137236072Y-91257381D01*
X137093214Y-91305000D01*
X136997976Y-91400238D01*
X136950357Y-91495476D01*
X136902738Y-91685952D01*
X136902738Y-91828810D01*
X136950357Y-92019286D01*
X136997976Y-92114524D01*
X137093214Y-92209762D01*
X137236072Y-92257381D01*
X137331310Y-92257381D01*
X137474167Y-92209762D01*
X137521786Y-92162143D01*
X137521786Y-91828810D01*
X137331310Y-91828810D01*
X137950357Y-92257381D02*
X137950357Y-91590714D01*
X137950357Y-91781190D02*
X137997976Y-91685952D01*
X138045595Y-91638333D01*
X138140833Y-91590714D01*
X138236072Y-91590714D01*
X138712262Y-92257381D02*
X138617024Y-92209762D01*
X138569405Y-92162143D01*
X138521786Y-92066905D01*
X138521786Y-91781190D01*
X138569405Y-91685952D01*
X138617024Y-91638333D01*
X138712262Y-91590714D01*
X138855120Y-91590714D01*
X138950358Y-91638333D01*
X138997977Y-91685952D01*
X139045596Y-91781190D01*
X139045596Y-92066905D01*
X138997977Y-92162143D01*
X138950358Y-92209762D01*
X138855120Y-92257381D01*
X138712262Y-92257381D01*
X139902739Y-91590714D02*
X139902739Y-92257381D01*
X139474167Y-91590714D02*
X139474167Y-92114524D01*
X139521786Y-92209762D01*
X139617024Y-92257381D01*
X139759882Y-92257381D01*
X139855120Y-92209762D01*
X139902739Y-92162143D01*
X140378929Y-91590714D02*
X140378929Y-92257381D01*
X140378929Y-91685952D02*
X140426548Y-91638333D01*
X140521786Y-91590714D01*
X140664644Y-91590714D01*
X140759882Y-91638333D01*
X140807501Y-91733571D01*
X140807501Y-92257381D01*
X141712263Y-92257381D02*
X141712263Y-91257381D01*
X141712263Y-92209762D02*
X141617025Y-92257381D01*
X141426548Y-92257381D01*
X141331310Y-92209762D01*
X141283691Y-92162143D01*
X141236072Y-92066905D01*
X141236072Y-91781190D01*
X141283691Y-91685952D01*
X141331310Y-91638333D01*
X141426548Y-91590714D01*
X141617025Y-91590714D01*
X141712263Y-91638333D01*
X142712263Y-92257381D02*
X142140834Y-92257381D01*
X142426548Y-92257381D02*
X142426548Y-91257381D01*
X142331310Y-91400238D01*
X142236072Y-91495476D01*
X142140834Y-91543095D01*
X161976310Y-95337381D02*
X161976310Y-94337381D01*
X162976310Y-95337381D02*
X162404881Y-95337381D01*
X162690595Y-95337381D02*
X162690595Y-94337381D01*
X162595357Y-94480238D01*
X162500119Y-94575476D01*
X162404881Y-94623095D01*
X161881071Y-90527381D02*
X162071548Y-90527381D01*
X162166786Y-90575000D01*
X162262024Y-90670238D01*
X162309643Y-90860714D01*
X162309643Y-91194048D01*
X162262024Y-91384524D01*
X162166786Y-91479762D01*
X162071548Y-91527381D01*
X161881071Y-91527381D01*
X161785833Y-91479762D01*
X161690595Y-91384524D01*
X161642976Y-91194048D01*
X161642976Y-90860714D01*
X161690595Y-90670238D01*
X161785833Y-90575000D01*
X161881071Y-90527381D01*
X162690595Y-90622619D02*
X162738214Y-90575000D01*
X162833452Y-90527381D01*
X163071548Y-90527381D01*
X163166786Y-90575000D01*
X163214405Y-90622619D01*
X163262024Y-90717857D01*
X163262024Y-90813095D01*
X163214405Y-90955952D01*
X162642976Y-91527381D01*
X163262024Y-91527381D01*
X147153334Y-99742381D02*
X146820000Y-99266190D01*
X146581905Y-99742381D02*
X146581905Y-98742381D01*
X146962858Y-98742381D01*
X147058096Y-98790000D01*
X147105715Y-98837619D01*
X147153334Y-98932857D01*
X147153334Y-99075714D01*
X147105715Y-99170952D01*
X147058096Y-99218571D01*
X146962858Y-99266190D01*
X146581905Y-99266190D01*
X148105715Y-99742381D02*
X147534286Y-99742381D01*
X147820000Y-99742381D02*
X147820000Y-98742381D01*
X147724762Y-98885238D01*
X147629524Y-98980476D01*
X147534286Y-99028095D01*
X148137619Y-86582381D02*
X147804285Y-86106190D01*
X147566190Y-86582381D02*
X147566190Y-85582381D01*
X147947143Y-85582381D01*
X148042381Y-85630000D01*
X148090000Y-85677619D01*
X148137619Y-85772857D01*
X148137619Y-85915714D01*
X148090000Y-86010952D01*
X148042381Y-86058571D01*
X147947143Y-86106190D01*
X147566190Y-86106190D01*
X148423333Y-85915714D02*
X148804285Y-85915714D01*
X148566190Y-86582381D02*
X148566190Y-85725238D01*
X148613809Y-85630000D01*
X148709047Y-85582381D01*
X148804285Y-85582381D01*
X149661429Y-86582381D02*
X149090000Y-86582381D01*
X149375714Y-86582381D02*
X149375714Y-85582381D01*
X149280476Y-85725238D01*
X149185238Y-85820476D01*
X149090000Y-85868095D01*
X150368095Y-86022381D02*
X150368095Y-86831905D01*
X150415714Y-86927143D01*
X150463333Y-86974762D01*
X150558571Y-87022381D01*
X150749048Y-87022381D01*
X150844286Y-86974762D01*
X150891905Y-86927143D01*
X150939524Y-86831905D01*
X150939524Y-86022381D01*
X151939524Y-87022381D02*
X151368095Y-87022381D01*
X151653809Y-87022381D02*
X151653809Y-86022381D01*
X151558571Y-86165238D01*
X151463333Y-86260476D01*
X151368095Y-86308095D01*
M02*
