G04 #@! TF.FileFunction,Copper,L2,Bot,Signal*
%FSLAX46Y46*%
G04 Gerber Fmt 4.6, Leading zero omitted, Abs format (unit mm)*
G04 Created by KiCad (PCBNEW 4.0.7) date 01/25/19 00:49:24*
%MOMM*%
%LPD*%
G01*
G04 APERTURE LIST*
%ADD10C,0.100000*%
%ADD11C,0.300000*%
%ADD12R,1.000000X1.000000*%
%ADD13C,1.600000*%
%ADD14O,1.600000X1.600000*%
%ADD15R,1.600000X1.600000*%
%ADD16C,0.750000*%
G04 APERTURE END LIST*
D10*
D11*
X161122857Y-102278571D02*
X161122857Y-100778571D01*
X160265714Y-102278571D01*
X160265714Y-100778571D01*
X159551428Y-101707143D02*
X158408571Y-101707143D01*
X157694285Y-102278571D02*
X157694285Y-100778571D01*
X154979999Y-102135714D02*
X155051428Y-102207143D01*
X155265714Y-102278571D01*
X155408571Y-102278571D01*
X155622856Y-102207143D01*
X155765714Y-102064286D01*
X155837142Y-101921429D01*
X155908571Y-101635714D01*
X155908571Y-101421429D01*
X155837142Y-101135714D01*
X155765714Y-100992857D01*
X155622856Y-100850000D01*
X155408571Y-100778571D01*
X155265714Y-100778571D01*
X155051428Y-100850000D01*
X154979999Y-100921429D01*
X153622856Y-102278571D02*
X154337142Y-102278571D01*
X154337142Y-100778571D01*
X160071428Y-83712857D02*
X159857142Y-83784286D01*
X159785714Y-83855714D01*
X159714285Y-83998571D01*
X159714285Y-84212857D01*
X159785714Y-84355714D01*
X159857142Y-84427143D01*
X160000000Y-84498571D01*
X160571428Y-84498571D01*
X160571428Y-82998571D01*
X160071428Y-82998571D01*
X159928571Y-83070000D01*
X159857142Y-83141429D01*
X159785714Y-83284286D01*
X159785714Y-83427143D01*
X159857142Y-83570000D01*
X159928571Y-83641429D01*
X160071428Y-83712857D01*
X160571428Y-83712857D01*
X159142857Y-83141429D02*
X159071428Y-83070000D01*
X158928571Y-82998571D01*
X158571428Y-82998571D01*
X158428571Y-83070000D01*
X158357142Y-83141429D01*
X158285714Y-83284286D01*
X158285714Y-83427143D01*
X158357142Y-83641429D01*
X159214285Y-84498571D01*
X158285714Y-84498571D01*
X157785714Y-82998571D02*
X156857143Y-82998571D01*
X157357143Y-83570000D01*
X157142857Y-83570000D01*
X157000000Y-83641429D01*
X156928571Y-83712857D01*
X156857143Y-83855714D01*
X156857143Y-84212857D01*
X156928571Y-84355714D01*
X157000000Y-84427143D01*
X157142857Y-84498571D01*
X157571429Y-84498571D01*
X157714286Y-84427143D01*
X157785714Y-84355714D01*
D12*
X160020000Y-88900000D03*
X142240000Y-95250000D03*
X142240000Y-90170000D03*
X160020000Y-96520000D03*
X160020000Y-92710000D03*
D13*
X143510000Y-101600000D03*
D14*
X151130000Y-101600000D03*
D13*
X152400000Y-83820000D03*
D14*
X144780000Y-83820000D03*
D15*
X147320000Y-88900000D03*
D14*
X154940000Y-96520000D03*
X147320000Y-91440000D03*
X154940000Y-93980000D03*
X147320000Y-93980000D03*
X154940000Y-91440000D03*
X147320000Y-96520000D03*
X154940000Y-88900000D03*
D16*
X154940000Y-91440000D02*
X157480000Y-91440000D01*
X157480000Y-91440000D02*
X160020000Y-88900000D01*
X142240000Y-95250000D02*
X146050000Y-95250000D01*
X146050000Y-95250000D02*
X147320000Y-96520000D01*
X144780000Y-83820000D02*
X144780000Y-87630000D01*
X144780000Y-87630000D02*
X142240000Y-90170000D01*
X142240000Y-90170000D02*
X146050000Y-90170000D01*
X146050000Y-90170000D02*
X147320000Y-91440000D01*
X160020000Y-96520000D02*
X158750000Y-96520000D01*
X153670000Y-99060000D02*
X151130000Y-101600000D01*
X156210000Y-99060000D02*
X153670000Y-99060000D01*
X158750000Y-96520000D02*
X156210000Y-99060000D01*
X152400000Y-83820000D02*
X152400000Y-90170000D01*
X152400000Y-93980000D02*
X154940000Y-93980000D01*
X152400000Y-90170000D02*
X152400000Y-93980000D01*
X160020000Y-92710000D02*
X156210000Y-92710000D01*
X156210000Y-92710000D02*
X154940000Y-93980000D01*
X147320000Y-93980000D02*
X151130000Y-93980000D01*
X146050000Y-99060000D02*
X143510000Y-101600000D01*
X148590000Y-99060000D02*
X146050000Y-99060000D01*
X149860000Y-97790000D02*
X148590000Y-99060000D01*
X149860000Y-95250000D02*
X149860000Y-97790000D01*
X151130000Y-93980000D02*
X149860000Y-95250000D01*
M02*
