G04 #@! TF.FileFunction,Other,User*
%FSLAX46Y46*%
G04 Gerber Fmt 4.6, Leading zero omitted, Abs format (unit mm)*
G04 Created by KiCad (PCBNEW 4.0.7) date 01/30/19 19:44:05*
%MOMM*%
%LPD*%
G01*
G04 APERTURE LIST*
%ADD10C,0.100000*%
%ADD11C,0.050000*%
G04 APERTURE END LIST*
D10*
D11*
X160140000Y-86480000D02*
X160140000Y-88780000D01*
X160140000Y-88780000D02*
X167290000Y-88780000D01*
X167290000Y-88780000D02*
X167290000Y-86480000D01*
X167290000Y-86480000D02*
X160140000Y-86480000D01*
X140215000Y-93225000D02*
X140215000Y-90925000D01*
X140215000Y-90925000D02*
X133065000Y-90925000D01*
X133065000Y-90925000D02*
X133065000Y-93225000D01*
X133065000Y-93225000D02*
X140215000Y-93225000D01*
X160140000Y-90290000D02*
X160140000Y-92590000D01*
X160140000Y-92590000D02*
X167290000Y-92590000D01*
X167290000Y-92590000D02*
X167290000Y-90290000D01*
X167290000Y-90290000D02*
X160140000Y-90290000D01*
X151985000Y-73965000D02*
X151985000Y-77165000D01*
X151985000Y-77165000D02*
X161735000Y-77165000D01*
X161735000Y-77165000D02*
X161735000Y-73965000D01*
X161735000Y-73965000D02*
X151985000Y-73965000D01*
X141190000Y-75870000D02*
X141190000Y-79070000D01*
X141190000Y-79070000D02*
X150940000Y-79070000D01*
X150940000Y-79070000D02*
X150940000Y-75870000D01*
X150940000Y-75870000D02*
X141190000Y-75870000D01*
X139395000Y-78325000D02*
X136195000Y-78325000D01*
X136195000Y-78325000D02*
X136195000Y-88075000D01*
X136195000Y-88075000D02*
X139395000Y-88075000D01*
X139395000Y-88075000D02*
X139395000Y-78325000D01*
X152180000Y-98120000D02*
X152180000Y-94920000D01*
X152180000Y-94920000D02*
X142430000Y-94920000D01*
X142430000Y-94920000D02*
X142430000Y-98120000D01*
X142430000Y-98120000D02*
X152180000Y-98120000D01*
X143230000Y-80950000D02*
X143230000Y-91750000D01*
X143230000Y-91750000D02*
X153930000Y-91750000D01*
X153930000Y-91750000D02*
X153930000Y-80950000D01*
X153930000Y-80950000D02*
X143230000Y-80950000D01*
X160140000Y-78860000D02*
X160140000Y-81160000D01*
X160140000Y-81160000D02*
X167290000Y-81160000D01*
X167290000Y-81160000D02*
X167290000Y-78860000D01*
X167290000Y-78860000D02*
X160140000Y-78860000D01*
X160140000Y-82670000D02*
X160140000Y-84970000D01*
X160140000Y-84970000D02*
X167290000Y-84970000D01*
X167290000Y-84970000D02*
X167290000Y-82670000D01*
X167290000Y-82670000D02*
X160140000Y-82670000D01*
M02*
