G04 #@! TF.FileFunction,Other,Fab,Top*
%FSLAX46Y46*%
G04 Gerber Fmt 4.6, Leading zero omitted, Abs format (unit mm)*
G04 Created by KiCad (PCBNEW 4.0.7) date 01/29/19 23:06:21*
%MOMM*%
%LPD*%
G01*
G04 APERTURE LIST*
%ADD10C,0.100000*%
%ADD11C,0.150000*%
%ADD12C,0.090000*%
G04 APERTURE END LIST*
D10*
X140450000Y-75565000D02*
X141200000Y-75565000D01*
X141200000Y-75565000D02*
X141200000Y-76835000D01*
X141200000Y-76835000D02*
X140200000Y-76835000D01*
X140200000Y-76835000D02*
X140200000Y-75815000D01*
X140200000Y-75815000D02*
X140450000Y-75565000D01*
X139500000Y-76000000D02*
X140200000Y-76000000D01*
X139500000Y-76000000D02*
X139500000Y-76400000D01*
X139500000Y-76400000D02*
X140200000Y-76400000D01*
X141200000Y-76000000D02*
X145200000Y-76000000D01*
X145200000Y-76000000D02*
X145200000Y-76400000D01*
X141200000Y-76400000D02*
X145200000Y-76400000D01*
X117360000Y-86995000D02*
X116610000Y-86995000D01*
X116610000Y-86995000D02*
X116610000Y-85725000D01*
X116610000Y-85725000D02*
X117610000Y-85725000D01*
X117610000Y-85725000D02*
X117610000Y-86745000D01*
X117610000Y-86745000D02*
X117360000Y-86995000D01*
X118310000Y-86560000D02*
X117610000Y-86560000D01*
X118310000Y-86560000D02*
X118310000Y-86160000D01*
X118310000Y-86160000D02*
X117610000Y-86160000D01*
X116610000Y-86560000D02*
X112610000Y-86560000D01*
X112610000Y-86560000D02*
X112610000Y-86160000D01*
X116610000Y-86160000D02*
X112610000Y-86160000D01*
X117360000Y-81915000D02*
X116610000Y-81915000D01*
X116610000Y-81915000D02*
X116610000Y-80645000D01*
X116610000Y-80645000D02*
X117610000Y-80645000D01*
X117610000Y-80645000D02*
X117610000Y-81665000D01*
X117610000Y-81665000D02*
X117360000Y-81915000D01*
X118310000Y-81480000D02*
X117610000Y-81480000D01*
X118310000Y-81480000D02*
X118310000Y-81080000D01*
X118310000Y-81080000D02*
X117610000Y-81080000D01*
X116610000Y-81480000D02*
X112610000Y-81480000D01*
X112610000Y-81480000D02*
X112610000Y-81080000D01*
X116610000Y-81080000D02*
X112610000Y-81080000D01*
X140450000Y-79375000D02*
X141200000Y-79375000D01*
X141200000Y-79375000D02*
X141200000Y-80645000D01*
X141200000Y-80645000D02*
X140200000Y-80645000D01*
X140200000Y-80645000D02*
X140200000Y-79625000D01*
X140200000Y-79625000D02*
X140450000Y-79375000D01*
X139500000Y-79810000D02*
X140200000Y-79810000D01*
X139500000Y-79810000D02*
X139500000Y-80210000D01*
X139500000Y-80210000D02*
X140200000Y-80210000D01*
X141200000Y-79810000D02*
X145200000Y-79810000D01*
X145200000Y-79810000D02*
X145200000Y-80210000D01*
X141200000Y-80210000D02*
X145200000Y-80210000D01*
X132690000Y-69830000D02*
X132690000Y-67330000D01*
X132690000Y-67330000D02*
X126390000Y-67330000D01*
X126390000Y-67330000D02*
X126390000Y-69830000D01*
X126390000Y-69830000D02*
X132690000Y-69830000D01*
X133350000Y-68580000D02*
X132690000Y-68580000D01*
X125730000Y-68580000D02*
X126390000Y-68580000D01*
X121900000Y-66700000D02*
X119400000Y-66700000D01*
X119400000Y-66700000D02*
X119400000Y-73000000D01*
X119400000Y-73000000D02*
X121900000Y-73000000D01*
X121900000Y-73000000D02*
X121900000Y-66700000D01*
X120650000Y-66040000D02*
X120650000Y-66700000D01*
X120650000Y-73660000D02*
X120650000Y-73000000D01*
X125120000Y-88920000D02*
X125120000Y-91420000D01*
X125120000Y-91420000D02*
X131420000Y-91420000D01*
X131420000Y-91420000D02*
X131420000Y-88920000D01*
X131420000Y-88920000D02*
X125120000Y-88920000D01*
X124460000Y-90170000D02*
X125120000Y-90170000D01*
X132080000Y-90170000D02*
X131420000Y-90170000D01*
X128635000Y-74930000D02*
X133985000Y-74930000D01*
X133985000Y-74930000D02*
X133985000Y-85090000D01*
X133985000Y-85090000D02*
X127635000Y-85090000D01*
X127635000Y-85090000D02*
X127635000Y-75930000D01*
X127635000Y-75930000D02*
X128635000Y-74930000D01*
X125730000Y-74870000D02*
X125730000Y-85150000D01*
X125730000Y-85150000D02*
X135890000Y-85150000D01*
X135890000Y-85150000D02*
X135890000Y-74870000D01*
X135890000Y-74870000D02*
X125730000Y-74870000D01*
X117360000Y-78105000D02*
X116610000Y-78105000D01*
X116610000Y-78105000D02*
X116610000Y-76835000D01*
X116610000Y-76835000D02*
X117610000Y-76835000D01*
X117610000Y-76835000D02*
X117610000Y-77855000D01*
X117610000Y-77855000D02*
X117360000Y-78105000D01*
X118310000Y-77670000D02*
X117610000Y-77670000D01*
X118310000Y-77670000D02*
X118310000Y-77270000D01*
X118310000Y-77270000D02*
X117610000Y-77270000D01*
X116610000Y-77670000D02*
X112610000Y-77670000D01*
X112610000Y-77670000D02*
X112610000Y-77270000D01*
X116610000Y-77270000D02*
X112610000Y-77270000D01*
X140450000Y-85725000D02*
X141200000Y-85725000D01*
X141200000Y-85725000D02*
X141200000Y-86995000D01*
X141200000Y-86995000D02*
X140200000Y-86995000D01*
X140200000Y-86995000D02*
X140200000Y-85975000D01*
X140200000Y-85975000D02*
X140450000Y-85725000D01*
X139500000Y-86160000D02*
X140200000Y-86160000D01*
X139500000Y-86160000D02*
X139500000Y-86560000D01*
X139500000Y-86560000D02*
X140200000Y-86560000D01*
X141200000Y-86160000D02*
X145200000Y-86160000D01*
X145200000Y-86160000D02*
X145200000Y-86560000D01*
X141200000Y-86560000D02*
X145200000Y-86560000D01*
D11*
X140370595Y-77906429D02*
X141132500Y-77906429D01*
X140751548Y-78287381D02*
X140751548Y-77525476D01*
X142132500Y-78287381D02*
X141561071Y-78287381D01*
X141846785Y-78287381D02*
X141846785Y-77287381D01*
X141751547Y-77430238D01*
X141656309Y-77525476D01*
X141561071Y-77573095D01*
X142513452Y-77382619D02*
X142561071Y-77335000D01*
X142656309Y-77287381D01*
X142894405Y-77287381D01*
X142989643Y-77335000D01*
X143037262Y-77382619D01*
X143084881Y-77477857D01*
X143084881Y-77573095D01*
X143037262Y-77715952D01*
X142465833Y-78287381D01*
X143084881Y-78287381D01*
X143370595Y-77287381D02*
X143703928Y-78287381D01*
X144037262Y-77287381D01*
D12*
X140742857Y-77485715D02*
X140742857Y-77028572D01*
X140971429Y-77257143D02*
X140514286Y-77257143D01*
X140371429Y-76828572D02*
X140971429Y-76628572D01*
X140371429Y-76428572D01*
X140942857Y-75971429D02*
X140971429Y-76028572D01*
X140971429Y-76142858D01*
X140942857Y-76200000D01*
X140914286Y-76228572D01*
X140857143Y-76257143D01*
X140685714Y-76257143D01*
X140628571Y-76228572D01*
X140600000Y-76200000D01*
X140571429Y-76142858D01*
X140571429Y-76028572D01*
X140600000Y-75971429D01*
X140942857Y-75457143D02*
X140971429Y-75514286D01*
X140971429Y-75628572D01*
X140942857Y-75685714D01*
X140914286Y-75714286D01*
X140857143Y-75742857D01*
X140685714Y-75742857D01*
X140628571Y-75714286D01*
X140600000Y-75685714D01*
X140571429Y-75628572D01*
X140571429Y-75514286D01*
X140600000Y-75457143D01*
X140971429Y-74885714D02*
X140971429Y-75228571D01*
X140971429Y-75057143D02*
X140371429Y-75057143D01*
X140457143Y-75114286D01*
X140514286Y-75171428D01*
X140542857Y-75228571D01*
D11*
X113915595Y-84796429D02*
X114677500Y-84796429D01*
X115677500Y-85177381D02*
X115106071Y-85177381D01*
X115391785Y-85177381D02*
X115391785Y-84177381D01*
X115296547Y-84320238D01*
X115201309Y-84415476D01*
X115106071Y-84463095D01*
X116058452Y-84272619D02*
X116106071Y-84225000D01*
X116201309Y-84177381D01*
X116439405Y-84177381D01*
X116534643Y-84225000D01*
X116582262Y-84272619D01*
X116629881Y-84367857D01*
X116629881Y-84463095D01*
X116582262Y-84605952D01*
X116010833Y-85177381D01*
X116629881Y-85177381D01*
X116915595Y-84177381D02*
X117248928Y-85177381D01*
X117582262Y-84177381D01*
D12*
X117152857Y-87645715D02*
X117152857Y-87188572D01*
X116781429Y-86988572D02*
X117381429Y-86788572D01*
X116781429Y-86588572D01*
X117352857Y-86131429D02*
X117381429Y-86188572D01*
X117381429Y-86302858D01*
X117352857Y-86360000D01*
X117324286Y-86388572D01*
X117267143Y-86417143D01*
X117095714Y-86417143D01*
X117038571Y-86388572D01*
X117010000Y-86360000D01*
X116981429Y-86302858D01*
X116981429Y-86188572D01*
X117010000Y-86131429D01*
X117352857Y-85617143D02*
X117381429Y-85674286D01*
X117381429Y-85788572D01*
X117352857Y-85845714D01*
X117324286Y-85874286D01*
X117267143Y-85902857D01*
X117095714Y-85902857D01*
X117038571Y-85874286D01*
X117010000Y-85845714D01*
X116981429Y-85788572D01*
X116981429Y-85674286D01*
X117010000Y-85617143D01*
X117381429Y-85045714D02*
X117381429Y-85388571D01*
X117381429Y-85217143D02*
X116781429Y-85217143D01*
X116867143Y-85274286D01*
X116924286Y-85331428D01*
X116952857Y-85388571D01*
D11*
X115034643Y-79145000D02*
X114939405Y-79097381D01*
X114796548Y-79097381D01*
X114653690Y-79145000D01*
X114558452Y-79240238D01*
X114510833Y-79335476D01*
X114463214Y-79525952D01*
X114463214Y-79668810D01*
X114510833Y-79859286D01*
X114558452Y-79954524D01*
X114653690Y-80049762D01*
X114796548Y-80097381D01*
X114891786Y-80097381D01*
X115034643Y-80049762D01*
X115082262Y-80002143D01*
X115082262Y-79668810D01*
X114891786Y-79668810D01*
X115510833Y-79430714D02*
X115510833Y-80097381D01*
X115510833Y-79525952D02*
X115558452Y-79478333D01*
X115653690Y-79430714D01*
X115796548Y-79430714D01*
X115891786Y-79478333D01*
X115939405Y-79573571D01*
X115939405Y-80097381D01*
X116844167Y-80097381D02*
X116844167Y-79097381D01*
X116844167Y-80049762D02*
X116748929Y-80097381D01*
X116558452Y-80097381D01*
X116463214Y-80049762D01*
X116415595Y-80002143D01*
X116367976Y-79906905D01*
X116367976Y-79621190D01*
X116415595Y-79525952D01*
X116463214Y-79478333D01*
X116558452Y-79430714D01*
X116748929Y-79430714D01*
X116844167Y-79478333D01*
D12*
X116810000Y-82680000D02*
X116781429Y-82737143D01*
X116781429Y-82822857D01*
X116810000Y-82908572D01*
X116867143Y-82965714D01*
X116924286Y-82994286D01*
X117038571Y-83022857D01*
X117124286Y-83022857D01*
X117238571Y-82994286D01*
X117295714Y-82965714D01*
X117352857Y-82908572D01*
X117381429Y-82822857D01*
X117381429Y-82765714D01*
X117352857Y-82680000D01*
X117324286Y-82651429D01*
X117124286Y-82651429D01*
X117124286Y-82765714D01*
X117381429Y-82394286D02*
X116981429Y-82394286D01*
X117095714Y-82394286D02*
X117038571Y-82365714D01*
X117010000Y-82337143D01*
X116981429Y-82280000D01*
X116981429Y-82222857D01*
X117381429Y-81937143D02*
X117352857Y-81994285D01*
X117324286Y-82022857D01*
X117267143Y-82051428D01*
X117095714Y-82051428D01*
X117038571Y-82022857D01*
X117010000Y-81994285D01*
X116981429Y-81937143D01*
X116981429Y-81851428D01*
X117010000Y-81794285D01*
X117038571Y-81765714D01*
X117095714Y-81737143D01*
X117267143Y-81737143D01*
X117324286Y-81765714D01*
X117352857Y-81794285D01*
X117381429Y-81851428D01*
X117381429Y-81937143D01*
X116981429Y-81222857D02*
X117381429Y-81222857D01*
X116981429Y-81480000D02*
X117295714Y-81480000D01*
X117352857Y-81451428D01*
X117381429Y-81394286D01*
X117381429Y-81308571D01*
X117352857Y-81251428D01*
X117324286Y-81222857D01*
X116981429Y-80937143D02*
X117381429Y-80937143D01*
X117038571Y-80937143D02*
X117010000Y-80908571D01*
X116981429Y-80851429D01*
X116981429Y-80765714D01*
X117010000Y-80708571D01*
X117067143Y-80680000D01*
X117381429Y-80680000D01*
X117381429Y-80137143D02*
X116781429Y-80137143D01*
X117352857Y-80137143D02*
X117381429Y-80194286D01*
X117381429Y-80308572D01*
X117352857Y-80365714D01*
X117324286Y-80394286D01*
X117267143Y-80422857D01*
X117095714Y-80422857D01*
X117038571Y-80394286D01*
X117010000Y-80365714D01*
X116981429Y-80308572D01*
X116981429Y-80194286D01*
X117010000Y-80137143D01*
X117381429Y-79537143D02*
X117381429Y-79880000D01*
X117381429Y-79708572D02*
X116781429Y-79708572D01*
X116867143Y-79765715D01*
X116924286Y-79822857D01*
X116952857Y-79880000D01*
D11*
X141418215Y-82002143D02*
X141370596Y-82049762D01*
X141227739Y-82097381D01*
X141132501Y-82097381D01*
X140989643Y-82049762D01*
X140894405Y-81954524D01*
X140846786Y-81859286D01*
X140799167Y-81668810D01*
X140799167Y-81525952D01*
X140846786Y-81335476D01*
X140894405Y-81240238D01*
X140989643Y-81145000D01*
X141132501Y-81097381D01*
X141227739Y-81097381D01*
X141370596Y-81145000D01*
X141418215Y-81192619D01*
X142418215Y-82097381D02*
X142084881Y-81621190D01*
X141846786Y-82097381D02*
X141846786Y-81097381D01*
X142227739Y-81097381D01*
X142322977Y-81145000D01*
X142370596Y-81192619D01*
X142418215Y-81287857D01*
X142418215Y-81430714D01*
X142370596Y-81525952D01*
X142322977Y-81573571D01*
X142227739Y-81621190D01*
X141846786Y-81621190D01*
X143037262Y-81097381D02*
X143227739Y-81097381D01*
X143322977Y-81145000D01*
X143418215Y-81240238D01*
X143465834Y-81430714D01*
X143465834Y-81764048D01*
X143418215Y-81954524D01*
X143322977Y-82049762D01*
X143227739Y-82097381D01*
X143037262Y-82097381D01*
X142942024Y-82049762D01*
X142846786Y-81954524D01*
X142799167Y-81764048D01*
X142799167Y-81430714D01*
X142846786Y-81240238D01*
X142942024Y-81145000D01*
X143037262Y-81097381D01*
D12*
X140371429Y-80352857D02*
X140371429Y-80238571D01*
X140400000Y-80181429D01*
X140457143Y-80124286D01*
X140571429Y-80095714D01*
X140771429Y-80095714D01*
X140885714Y-80124286D01*
X140942857Y-80181429D01*
X140971429Y-80238571D01*
X140971429Y-80352857D01*
X140942857Y-80410000D01*
X140885714Y-80467143D01*
X140771429Y-80495714D01*
X140571429Y-80495714D01*
X140457143Y-80467143D01*
X140400000Y-80410000D01*
X140371429Y-80352857D01*
X140971429Y-79524286D02*
X140971429Y-79867143D01*
X140971429Y-79695715D02*
X140371429Y-79695715D01*
X140457143Y-79752858D01*
X140514286Y-79810000D01*
X140542857Y-79867143D01*
D11*
X127468572Y-66722381D02*
X126897143Y-66722381D01*
X127182857Y-66722381D02*
X127182857Y-65722381D01*
X127087619Y-65865238D01*
X126992381Y-65960476D01*
X126897143Y-66008095D01*
X127897143Y-66722381D02*
X127897143Y-65722381D01*
X127992381Y-66341429D02*
X128278096Y-66722381D01*
X128278096Y-66055714D02*
X127897143Y-66436667D01*
X129611429Y-66722381D02*
X129516191Y-66674762D01*
X129468572Y-66627143D01*
X129420953Y-66531905D01*
X129420953Y-66246190D01*
X129468572Y-66150952D01*
X129516191Y-66103333D01*
X129611429Y-66055714D01*
X129754287Y-66055714D01*
X129849525Y-66103333D01*
X129897144Y-66150952D01*
X129944763Y-66246190D01*
X129944763Y-66531905D01*
X129897144Y-66627143D01*
X129849525Y-66674762D01*
X129754287Y-66722381D01*
X129611429Y-66722381D01*
X130373334Y-66722381D02*
X130373334Y-65722381D01*
X130801906Y-66722381D02*
X130801906Y-66198571D01*
X130754287Y-66103333D01*
X130659049Y-66055714D01*
X130516191Y-66055714D01*
X130420953Y-66103333D01*
X130373334Y-66150952D01*
X131278096Y-66722381D02*
X131278096Y-66055714D01*
X131278096Y-66150952D02*
X131325715Y-66103333D01*
X131420953Y-66055714D01*
X131563811Y-66055714D01*
X131659049Y-66103333D01*
X131706668Y-66198571D01*
X131706668Y-66722381D01*
X131706668Y-66198571D02*
X131754287Y-66103333D01*
X131849525Y-66055714D01*
X131992382Y-66055714D01*
X132087620Y-66103333D01*
X132135239Y-66198571D01*
X132135239Y-66722381D01*
X118792381Y-71921428D02*
X118792381Y-72492857D01*
X118792381Y-72207143D02*
X117792381Y-72207143D01*
X117935238Y-72302381D01*
X118030476Y-72397619D01*
X118078095Y-72492857D01*
X118792381Y-71492857D02*
X117792381Y-71492857D01*
X118411429Y-71397619D02*
X118792381Y-71111904D01*
X118125714Y-71111904D02*
X118506667Y-71492857D01*
X118792381Y-69778571D02*
X118744762Y-69873809D01*
X118697143Y-69921428D01*
X118601905Y-69969047D01*
X118316190Y-69969047D01*
X118220952Y-69921428D01*
X118173333Y-69873809D01*
X118125714Y-69778571D01*
X118125714Y-69635713D01*
X118173333Y-69540475D01*
X118220952Y-69492856D01*
X118316190Y-69445237D01*
X118601905Y-69445237D01*
X118697143Y-69492856D01*
X118744762Y-69540475D01*
X118792381Y-69635713D01*
X118792381Y-69778571D01*
X118792381Y-69016666D02*
X117792381Y-69016666D01*
X118792381Y-68588094D02*
X118268571Y-68588094D01*
X118173333Y-68635713D01*
X118125714Y-68730951D01*
X118125714Y-68873809D01*
X118173333Y-68969047D01*
X118220952Y-69016666D01*
X118792381Y-68111904D02*
X118125714Y-68111904D01*
X118220952Y-68111904D02*
X118173333Y-68064285D01*
X118125714Y-67969047D01*
X118125714Y-67826189D01*
X118173333Y-67730951D01*
X118268571Y-67683332D01*
X118792381Y-67683332D01*
X118268571Y-67683332D02*
X118173333Y-67635713D01*
X118125714Y-67540475D01*
X118125714Y-67397618D01*
X118173333Y-67302380D01*
X118268571Y-67254761D01*
X118792381Y-67254761D01*
X126198572Y-92932381D02*
X125627143Y-92932381D01*
X125912857Y-92932381D02*
X125912857Y-91932381D01*
X125817619Y-92075238D01*
X125722381Y-92170476D01*
X125627143Y-92218095D01*
X126627143Y-92932381D02*
X126627143Y-91932381D01*
X126722381Y-92551429D02*
X127008096Y-92932381D01*
X127008096Y-92265714D02*
X126627143Y-92646667D01*
X128341429Y-92932381D02*
X128246191Y-92884762D01*
X128198572Y-92837143D01*
X128150953Y-92741905D01*
X128150953Y-92456190D01*
X128198572Y-92360952D01*
X128246191Y-92313333D01*
X128341429Y-92265714D01*
X128484287Y-92265714D01*
X128579525Y-92313333D01*
X128627144Y-92360952D01*
X128674763Y-92456190D01*
X128674763Y-92741905D01*
X128627144Y-92837143D01*
X128579525Y-92884762D01*
X128484287Y-92932381D01*
X128341429Y-92932381D01*
X129103334Y-92932381D02*
X129103334Y-91932381D01*
X129531906Y-92932381D02*
X129531906Y-92408571D01*
X129484287Y-92313333D01*
X129389049Y-92265714D01*
X129246191Y-92265714D01*
X129150953Y-92313333D01*
X129103334Y-92360952D01*
X130008096Y-92932381D02*
X130008096Y-92265714D01*
X130008096Y-92360952D02*
X130055715Y-92313333D01*
X130150953Y-92265714D01*
X130293811Y-92265714D01*
X130389049Y-92313333D01*
X130436668Y-92408571D01*
X130436668Y-92932381D01*
X130436668Y-92408571D02*
X130484287Y-92313333D01*
X130579525Y-92265714D01*
X130722382Y-92265714D01*
X130817620Y-92313333D01*
X130865239Y-92408571D01*
X130865239Y-92932381D01*
X129119524Y-86602381D02*
X128643333Y-86602381D01*
X128643333Y-85602381D01*
X129452857Y-86602381D02*
X129452857Y-85602381D01*
X129786191Y-86316667D01*
X130119524Y-85602381D01*
X130119524Y-86602381D01*
X130500476Y-85602381D02*
X131167143Y-85602381D01*
X130738571Y-86602381D01*
X131976667Y-85935714D02*
X131976667Y-86602381D01*
X131738571Y-85554762D02*
X131500476Y-86269048D01*
X132119524Y-86269048D01*
X133024286Y-86602381D02*
X132452857Y-86602381D01*
X132738571Y-86602381D02*
X132738571Y-85602381D01*
X132643333Y-85745238D01*
X132548095Y-85840476D01*
X132452857Y-85888095D01*
X130048095Y-79462381D02*
X130048095Y-80271905D01*
X130095714Y-80367143D01*
X130143333Y-80414762D01*
X130238571Y-80462381D01*
X130429048Y-80462381D01*
X130524286Y-80414762D01*
X130571905Y-80367143D01*
X130619524Y-80271905D01*
X130619524Y-79462381D01*
X131619524Y-80462381D02*
X131048095Y-80462381D01*
X131333809Y-80462381D02*
X131333809Y-79462381D01*
X131238571Y-79605238D01*
X131143333Y-79700476D01*
X131048095Y-79748095D01*
X115201310Y-76287381D02*
X115201310Y-75287381D01*
X116201310Y-76287381D02*
X115629881Y-76287381D01*
X115915595Y-76287381D02*
X115915595Y-75287381D01*
X115820357Y-75430238D01*
X115725119Y-75525476D01*
X115629881Y-75573095D01*
D12*
X116781429Y-77955714D02*
X117381429Y-77755714D01*
X116781429Y-77555714D01*
X117381429Y-77041428D02*
X117381429Y-77384285D01*
X117381429Y-77212857D02*
X116781429Y-77212857D01*
X116867143Y-77270000D01*
X116924286Y-77327142D01*
X116952857Y-77384285D01*
D11*
X141656310Y-88447381D02*
X141656310Y-87447381D01*
X142084881Y-87542619D02*
X142132500Y-87495000D01*
X142227738Y-87447381D01*
X142465834Y-87447381D01*
X142561072Y-87495000D01*
X142608691Y-87542619D01*
X142656310Y-87637857D01*
X142656310Y-87733095D01*
X142608691Y-87875952D01*
X142037262Y-88447381D01*
X142656310Y-88447381D01*
D12*
X140371429Y-86845714D02*
X140971429Y-86645714D01*
X140371429Y-86445714D01*
X140428571Y-86274285D02*
X140400000Y-86245714D01*
X140371429Y-86188571D01*
X140371429Y-86045714D01*
X140400000Y-85988571D01*
X140428571Y-85960000D01*
X140485714Y-85931428D01*
X140542857Y-85931428D01*
X140628571Y-85960000D01*
X140971429Y-86302857D01*
X140971429Y-85931428D01*
M02*
