G04 #@! TF.FileFunction,Other,User*
%FSLAX46Y46*%
G04 Gerber Fmt 4.6, Leading zero omitted, Abs format (unit mm)*
G04 Created by KiCad (PCBNEW 4.0.7) date 02/07/19 19:23:19*
%MOMM*%
%LPD*%
G01*
G04 APERTURE LIST*
%ADD10C,0.100000*%
%ADD11C,0.050000*%
G04 APERTURE END LIST*
D10*
D11*
X162680000Y-81400000D02*
X162680000Y-83700000D01*
X162680000Y-83700000D02*
X169830000Y-83700000D01*
X169830000Y-83700000D02*
X169830000Y-81400000D01*
X169830000Y-81400000D02*
X162680000Y-81400000D01*
X139580000Y-93860000D02*
X139580000Y-91560000D01*
X139580000Y-91560000D02*
X132430000Y-91560000D01*
X132430000Y-91560000D02*
X132430000Y-93860000D01*
X132430000Y-93860000D02*
X139580000Y-93860000D01*
X138945000Y-98305000D02*
X138945000Y-96005000D01*
X138945000Y-96005000D02*
X131795000Y-96005000D01*
X131795000Y-96005000D02*
X131795000Y-98305000D01*
X131795000Y-98305000D02*
X138945000Y-98305000D01*
X162680000Y-85845000D02*
X162680000Y-88145000D01*
X162680000Y-88145000D02*
X169830000Y-88145000D01*
X169830000Y-88145000D02*
X169830000Y-85845000D01*
X169830000Y-85845000D02*
X162680000Y-85845000D01*
X153255000Y-93650000D02*
X153255000Y-96850000D01*
X153255000Y-96850000D02*
X165555000Y-96850000D01*
X165555000Y-96850000D02*
X165555000Y-93650000D01*
X165555000Y-93650000D02*
X153255000Y-93650000D01*
X143205000Y-75150000D02*
X140005000Y-75150000D01*
X140005000Y-75150000D02*
X140005000Y-87450000D01*
X140005000Y-87450000D02*
X143205000Y-87450000D01*
X143205000Y-87450000D02*
X143205000Y-75150000D01*
X152815000Y-100025000D02*
X152815000Y-96825000D01*
X152815000Y-96825000D02*
X140515000Y-96825000D01*
X140515000Y-96825000D02*
X140515000Y-100025000D01*
X140515000Y-100025000D02*
X152815000Y-100025000D01*
X157260000Y-79705000D02*
X157260000Y-76505000D01*
X157260000Y-76505000D02*
X144960000Y-76505000D01*
X144960000Y-76505000D02*
X144960000Y-79705000D01*
X144960000Y-79705000D02*
X157260000Y-79705000D01*
X145770000Y-82220000D02*
X145770000Y-93020000D01*
X145770000Y-93020000D02*
X156470000Y-93020000D01*
X156470000Y-93020000D02*
X156470000Y-82220000D01*
X156470000Y-82220000D02*
X145770000Y-82220000D01*
X162680000Y-89655000D02*
X162680000Y-91955000D01*
X162680000Y-91955000D02*
X169830000Y-91955000D01*
X169830000Y-91955000D02*
X169830000Y-89655000D01*
X169830000Y-89655000D02*
X162680000Y-89655000D01*
X139580000Y-90050000D02*
X139580000Y-87750000D01*
X139580000Y-87750000D02*
X132430000Y-87750000D01*
X132430000Y-87750000D02*
X132430000Y-90050000D01*
X132430000Y-90050000D02*
X139580000Y-90050000D01*
M02*
