G04 #@! TF.FileFunction,Legend,Top*
%FSLAX46Y46*%
G04 Gerber Fmt 4.6, Leading zero omitted, Abs format (unit mm)*
G04 Created by KiCad (PCBNEW 4.0.7) date 02/07/19 19:23:19*
%MOMM*%
%LPD*%
G01*
G04 APERTURE LIST*
%ADD10C,0.100000*%
%ADD11C,0.120000*%
%ADD12C,0.150000*%
G04 APERTURE END LIST*
D10*
D11*
X164590000Y-81855000D02*
X165390000Y-81855000D01*
X165390000Y-81855000D02*
X165390000Y-83245000D01*
X165390000Y-83245000D02*
X164590000Y-83245000D01*
X164590000Y-83245000D02*
X164590000Y-83169677D01*
X165390000Y-82290000D02*
X169390000Y-82290000D01*
X169390000Y-82290000D02*
X169390000Y-82810000D01*
X169390000Y-82810000D02*
X165390000Y-82810000D01*
X165390000Y-82350000D02*
X169390000Y-82350000D01*
X165390000Y-82470000D02*
X169390000Y-82470000D01*
X165390000Y-82590000D02*
X169390000Y-82590000D01*
X165390000Y-82710000D02*
X169390000Y-82710000D01*
X163070000Y-82550000D02*
X163070000Y-81790000D01*
X163070000Y-81790000D02*
X163830000Y-81790000D01*
X137670000Y-93405000D02*
X136870000Y-93405000D01*
X136870000Y-93405000D02*
X136870000Y-92015000D01*
X136870000Y-92015000D02*
X137670000Y-92015000D01*
X137670000Y-92015000D02*
X137670000Y-92090323D01*
X136870000Y-92970000D02*
X132870000Y-92970000D01*
X132870000Y-92970000D02*
X132870000Y-92450000D01*
X132870000Y-92450000D02*
X136870000Y-92450000D01*
X136870000Y-92910000D02*
X132870000Y-92910000D01*
X136870000Y-92790000D02*
X132870000Y-92790000D01*
X136870000Y-92670000D02*
X132870000Y-92670000D01*
X136870000Y-92550000D02*
X132870000Y-92550000D01*
X139190000Y-92710000D02*
X139190000Y-93470000D01*
X139190000Y-93470000D02*
X138430000Y-93470000D01*
X137035000Y-97850000D02*
X136235000Y-97850000D01*
X136235000Y-97850000D02*
X136235000Y-96460000D01*
X136235000Y-96460000D02*
X137035000Y-96460000D01*
X137035000Y-96460000D02*
X137035000Y-96535323D01*
X136235000Y-97415000D02*
X132235000Y-97415000D01*
X132235000Y-97415000D02*
X132235000Y-96895000D01*
X132235000Y-96895000D02*
X136235000Y-96895000D01*
X136235000Y-97355000D02*
X132235000Y-97355000D01*
X136235000Y-97235000D02*
X132235000Y-97235000D01*
X136235000Y-97115000D02*
X132235000Y-97115000D01*
X136235000Y-96995000D02*
X132235000Y-96995000D01*
X138555000Y-97155000D02*
X138555000Y-97915000D01*
X138555000Y-97915000D02*
X137795000Y-97915000D01*
X164590000Y-86300000D02*
X165390000Y-86300000D01*
X165390000Y-86300000D02*
X165390000Y-87690000D01*
X165390000Y-87690000D02*
X164590000Y-87690000D01*
X164590000Y-87690000D02*
X164590000Y-87614677D01*
X165390000Y-86735000D02*
X169390000Y-86735000D01*
X169390000Y-86735000D02*
X169390000Y-87255000D01*
X169390000Y-87255000D02*
X165390000Y-87255000D01*
X165390000Y-86795000D02*
X169390000Y-86795000D01*
X165390000Y-86915000D02*
X169390000Y-86915000D01*
X165390000Y-87035000D02*
X169390000Y-87035000D01*
X165390000Y-87155000D02*
X169390000Y-87155000D01*
X163070000Y-86995000D02*
X163070000Y-86235000D01*
X163070000Y-86235000D02*
X163830000Y-86235000D01*
X156175000Y-93940000D02*
X156175000Y-96560000D01*
X156175000Y-96560000D02*
X162595000Y-96560000D01*
X162595000Y-96560000D02*
X162595000Y-93940000D01*
X162595000Y-93940000D02*
X156175000Y-93940000D01*
X155285000Y-95250000D02*
X156175000Y-95250000D01*
X163485000Y-95250000D02*
X162595000Y-95250000D01*
X142915000Y-78070000D02*
X140295000Y-78070000D01*
X140295000Y-78070000D02*
X140295000Y-84490000D01*
X140295000Y-84490000D02*
X142915000Y-84490000D01*
X142915000Y-84490000D02*
X142915000Y-78070000D01*
X141605000Y-77180000D02*
X141605000Y-78070000D01*
X141605000Y-85380000D02*
X141605000Y-84490000D01*
X149895000Y-99735000D02*
X149895000Y-97115000D01*
X149895000Y-97115000D02*
X143475000Y-97115000D01*
X143475000Y-97115000D02*
X143475000Y-99735000D01*
X143475000Y-99735000D02*
X149895000Y-99735000D01*
X150785000Y-98425000D02*
X149895000Y-98425000D01*
X142585000Y-98425000D02*
X143475000Y-98425000D01*
X154340000Y-79415000D02*
X154340000Y-76795000D01*
X154340000Y-76795000D02*
X147920000Y-76795000D01*
X147920000Y-76795000D02*
X147920000Y-79415000D01*
X147920000Y-79415000D02*
X154340000Y-79415000D01*
X155230000Y-78105000D02*
X154340000Y-78105000D01*
X147030000Y-78105000D02*
X147920000Y-78105000D01*
X152130000Y-82490000D02*
G75*
G02X150130000Y-82490000I-1000000J0D01*
G01*
X150130000Y-82490000D02*
X148480000Y-82490000D01*
X148480000Y-82490000D02*
X148480000Y-92770000D01*
X148480000Y-92770000D02*
X153780000Y-92770000D01*
X153780000Y-92770000D02*
X153780000Y-82490000D01*
X153780000Y-82490000D02*
X152130000Y-82490000D01*
X145990000Y-82430000D02*
X145990000Y-92830000D01*
X145990000Y-92830000D02*
X156270000Y-92830000D01*
X156270000Y-92830000D02*
X156270000Y-82430000D01*
X156270000Y-82430000D02*
X145990000Y-82430000D01*
X164590000Y-90110000D02*
X165390000Y-90110000D01*
X165390000Y-90110000D02*
X165390000Y-91500000D01*
X165390000Y-91500000D02*
X164590000Y-91500000D01*
X164590000Y-91500000D02*
X164590000Y-91424677D01*
X165390000Y-90545000D02*
X169390000Y-90545000D01*
X169390000Y-90545000D02*
X169390000Y-91065000D01*
X169390000Y-91065000D02*
X165390000Y-91065000D01*
X165390000Y-90605000D02*
X169390000Y-90605000D01*
X165390000Y-90725000D02*
X169390000Y-90725000D01*
X165390000Y-90845000D02*
X169390000Y-90845000D01*
X165390000Y-90965000D02*
X169390000Y-90965000D01*
X163070000Y-90805000D02*
X163070000Y-90045000D01*
X163070000Y-90045000D02*
X163830000Y-90045000D01*
X137670000Y-89595000D02*
X136870000Y-89595000D01*
X136870000Y-89595000D02*
X136870000Y-88205000D01*
X136870000Y-88205000D02*
X137670000Y-88205000D01*
X137670000Y-88205000D02*
X137670000Y-88280323D01*
X136870000Y-89160000D02*
X132870000Y-89160000D01*
X132870000Y-89160000D02*
X132870000Y-88640000D01*
X132870000Y-88640000D02*
X136870000Y-88640000D01*
X136870000Y-89100000D02*
X132870000Y-89100000D01*
X136870000Y-88980000D02*
X132870000Y-88980000D01*
X136870000Y-88860000D02*
X132870000Y-88860000D01*
X136870000Y-88740000D02*
X132870000Y-88740000D01*
X139190000Y-88900000D02*
X139190000Y-89660000D01*
X139190000Y-89660000D02*
X138430000Y-89660000D01*
D12*
X164119643Y-80986429D02*
X164881548Y-80986429D01*
X164500596Y-81367381D02*
X164500596Y-80605476D01*
X165214881Y-80367381D02*
X165548214Y-81367381D01*
X165881548Y-80367381D01*
X166643453Y-81319762D02*
X166548215Y-81367381D01*
X166357738Y-81367381D01*
X166262500Y-81319762D01*
X166214881Y-81272143D01*
X166167262Y-81176905D01*
X166167262Y-80891190D01*
X166214881Y-80795952D01*
X166262500Y-80748333D01*
X166357738Y-80700714D01*
X166548215Y-80700714D01*
X166643453Y-80748333D01*
X167500596Y-81319762D02*
X167405358Y-81367381D01*
X167214881Y-81367381D01*
X167119643Y-81319762D01*
X167072024Y-81272143D01*
X167024405Y-81176905D01*
X167024405Y-80891190D01*
X167072024Y-80795952D01*
X167119643Y-80748333D01*
X167214881Y-80700714D01*
X167405358Y-80700714D01*
X167500596Y-80748333D01*
X168452977Y-81367381D02*
X167881548Y-81367381D01*
X168167262Y-81367381D02*
X168167262Y-80367381D01*
X168072024Y-80510238D01*
X167976786Y-80605476D01*
X167881548Y-80653095D01*
X133854643Y-94416429D02*
X134616548Y-94416429D01*
X134949881Y-93797381D02*
X135283214Y-94797381D01*
X135616548Y-93797381D01*
X136378453Y-94749762D02*
X136283215Y-94797381D01*
X136092738Y-94797381D01*
X135997500Y-94749762D01*
X135949881Y-94702143D01*
X135902262Y-94606905D01*
X135902262Y-94321190D01*
X135949881Y-94225952D01*
X135997500Y-94178333D01*
X136092738Y-94130714D01*
X136283215Y-94130714D01*
X136378453Y-94178333D01*
X137235596Y-94749762D02*
X137140358Y-94797381D01*
X136949881Y-94797381D01*
X136854643Y-94749762D01*
X136807024Y-94702143D01*
X136759405Y-94606905D01*
X136759405Y-94321190D01*
X136807024Y-94225952D01*
X136854643Y-94178333D01*
X136949881Y-94130714D01*
X137140358Y-94130714D01*
X137235596Y-94178333D01*
X138187977Y-94797381D02*
X137616548Y-94797381D01*
X137902262Y-94797381D02*
X137902262Y-93797381D01*
X137807024Y-93940238D01*
X137711786Y-94035476D01*
X137616548Y-94083095D01*
X133029167Y-98290000D02*
X132933929Y-98242381D01*
X132791072Y-98242381D01*
X132648214Y-98290000D01*
X132552976Y-98385238D01*
X132505357Y-98480476D01*
X132457738Y-98670952D01*
X132457738Y-98813810D01*
X132505357Y-99004286D01*
X132552976Y-99099524D01*
X132648214Y-99194762D01*
X132791072Y-99242381D01*
X132886310Y-99242381D01*
X133029167Y-99194762D01*
X133076786Y-99147143D01*
X133076786Y-98813810D01*
X132886310Y-98813810D01*
X133505357Y-99242381D02*
X133505357Y-98575714D01*
X133505357Y-98766190D02*
X133552976Y-98670952D01*
X133600595Y-98623333D01*
X133695833Y-98575714D01*
X133791072Y-98575714D01*
X134267262Y-99242381D02*
X134172024Y-99194762D01*
X134124405Y-99147143D01*
X134076786Y-99051905D01*
X134076786Y-98766190D01*
X134124405Y-98670952D01*
X134172024Y-98623333D01*
X134267262Y-98575714D01*
X134410120Y-98575714D01*
X134505358Y-98623333D01*
X134552977Y-98670952D01*
X134600596Y-98766190D01*
X134600596Y-99051905D01*
X134552977Y-99147143D01*
X134505358Y-99194762D01*
X134410120Y-99242381D01*
X134267262Y-99242381D01*
X135457739Y-98575714D02*
X135457739Y-99242381D01*
X135029167Y-98575714D02*
X135029167Y-99099524D01*
X135076786Y-99194762D01*
X135172024Y-99242381D01*
X135314882Y-99242381D01*
X135410120Y-99194762D01*
X135457739Y-99147143D01*
X135933929Y-98575714D02*
X135933929Y-99242381D01*
X135933929Y-98670952D02*
X135981548Y-98623333D01*
X136076786Y-98575714D01*
X136219644Y-98575714D01*
X136314882Y-98623333D01*
X136362501Y-98718571D01*
X136362501Y-99242381D01*
X137267263Y-99242381D02*
X137267263Y-98242381D01*
X137267263Y-99194762D02*
X137172025Y-99242381D01*
X136981548Y-99242381D01*
X136886310Y-99194762D01*
X136838691Y-99147143D01*
X136791072Y-99051905D01*
X136791072Y-98766190D01*
X136838691Y-98670952D01*
X136886310Y-98623333D01*
X136981548Y-98575714D01*
X137172025Y-98575714D01*
X137267263Y-98623333D01*
X138267263Y-99242381D02*
X137695834Y-99242381D01*
X137981548Y-99242381D02*
X137981548Y-98242381D01*
X137886310Y-98385238D01*
X137791072Y-98480476D01*
X137695834Y-98528095D01*
X163762499Y-84812381D02*
X163952976Y-84812381D01*
X164048214Y-84860000D01*
X164143452Y-84955238D01*
X164191071Y-85145714D01*
X164191071Y-85479048D01*
X164143452Y-85669524D01*
X164048214Y-85764762D01*
X163952976Y-85812381D01*
X163762499Y-85812381D01*
X163667261Y-85764762D01*
X163572023Y-85669524D01*
X163524404Y-85479048D01*
X163524404Y-85145714D01*
X163572023Y-84955238D01*
X163667261Y-84860000D01*
X163762499Y-84812381D01*
X165048214Y-85145714D02*
X165048214Y-85812381D01*
X164619642Y-85145714D02*
X164619642Y-85669524D01*
X164667261Y-85764762D01*
X164762499Y-85812381D01*
X164905357Y-85812381D01*
X165000595Y-85764762D01*
X165048214Y-85717143D01*
X165381547Y-85145714D02*
X165762499Y-85145714D01*
X165524404Y-84812381D02*
X165524404Y-85669524D01*
X165572023Y-85764762D01*
X165667261Y-85812381D01*
X165762499Y-85812381D01*
X166095833Y-85145714D02*
X166095833Y-86145714D01*
X166095833Y-85193333D02*
X166191071Y-85145714D01*
X166381548Y-85145714D01*
X166476786Y-85193333D01*
X166524405Y-85240952D01*
X166572024Y-85336190D01*
X166572024Y-85621905D01*
X166524405Y-85717143D01*
X166476786Y-85764762D01*
X166381548Y-85812381D01*
X166191071Y-85812381D01*
X166095833Y-85764762D01*
X167429167Y-85145714D02*
X167429167Y-85812381D01*
X167000595Y-85145714D02*
X167000595Y-85669524D01*
X167048214Y-85764762D01*
X167143452Y-85812381D01*
X167286310Y-85812381D01*
X167381548Y-85764762D01*
X167429167Y-85717143D01*
X167762500Y-85145714D02*
X168143452Y-85145714D01*
X167905357Y-84812381D02*
X167905357Y-85669524D01*
X167952976Y-85764762D01*
X168048214Y-85812381D01*
X168143452Y-85812381D01*
X169000596Y-85812381D02*
X168429167Y-85812381D01*
X168714881Y-85812381D02*
X168714881Y-84812381D01*
X168619643Y-84955238D01*
X168524405Y-85050476D01*
X168429167Y-85098095D01*
X159218334Y-93392381D02*
X158885000Y-92916190D01*
X158646905Y-93392381D02*
X158646905Y-92392381D01*
X159027858Y-92392381D01*
X159123096Y-92440000D01*
X159170715Y-92487619D01*
X159218334Y-92582857D01*
X159218334Y-92725714D01*
X159170715Y-92820952D01*
X159123096Y-92868571D01*
X159027858Y-92916190D01*
X158646905Y-92916190D01*
X160170715Y-93392381D02*
X159599286Y-93392381D01*
X159885000Y-93392381D02*
X159885000Y-92392381D01*
X159789762Y-92535238D01*
X159694524Y-92630476D01*
X159599286Y-92678095D01*
X144367381Y-81446666D02*
X143891190Y-81780000D01*
X144367381Y-82018095D02*
X143367381Y-82018095D01*
X143367381Y-81637142D01*
X143415000Y-81541904D01*
X143462619Y-81494285D01*
X143557857Y-81446666D01*
X143700714Y-81446666D01*
X143795952Y-81494285D01*
X143843571Y-81541904D01*
X143891190Y-81637142D01*
X143891190Y-82018095D01*
X143462619Y-81065714D02*
X143415000Y-81018095D01*
X143367381Y-80922857D01*
X143367381Y-80684761D01*
X143415000Y-80589523D01*
X143462619Y-80541904D01*
X143557857Y-80494285D01*
X143653095Y-80494285D01*
X143795952Y-80541904D01*
X144367381Y-81113333D01*
X144367381Y-80494285D01*
X146518334Y-101187381D02*
X146185000Y-100711190D01*
X145946905Y-101187381D02*
X145946905Y-100187381D01*
X146327858Y-100187381D01*
X146423096Y-100235000D01*
X146470715Y-100282619D01*
X146518334Y-100377857D01*
X146518334Y-100520714D01*
X146470715Y-100615952D01*
X146423096Y-100663571D01*
X146327858Y-100711190D01*
X145946905Y-100711190D01*
X146851667Y-100187381D02*
X147470715Y-100187381D01*
X147137381Y-100568333D01*
X147280239Y-100568333D01*
X147375477Y-100615952D01*
X147423096Y-100663571D01*
X147470715Y-100758810D01*
X147470715Y-100996905D01*
X147423096Y-101092143D01*
X147375477Y-101139762D01*
X147280239Y-101187381D01*
X146994524Y-101187381D01*
X146899286Y-101139762D01*
X146851667Y-101092143D01*
X150677619Y-80867381D02*
X150344285Y-80391190D01*
X150106190Y-80867381D02*
X150106190Y-79867381D01*
X150487143Y-79867381D01*
X150582381Y-79915000D01*
X150630000Y-79962619D01*
X150677619Y-80057857D01*
X150677619Y-80200714D01*
X150630000Y-80295952D01*
X150582381Y-80343571D01*
X150487143Y-80391190D01*
X150106190Y-80391190D01*
X150963333Y-80200714D02*
X151344285Y-80200714D01*
X151106190Y-80867381D02*
X151106190Y-80010238D01*
X151153809Y-79915000D01*
X151249047Y-79867381D01*
X151344285Y-79867381D01*
X152201429Y-80867381D02*
X151630000Y-80867381D01*
X151915714Y-80867381D02*
X151915714Y-79867381D01*
X151820476Y-80010238D01*
X151725238Y-80105476D01*
X151630000Y-80153095D01*
X150368095Y-80942381D02*
X150368095Y-81751905D01*
X150415714Y-81847143D01*
X150463333Y-81894762D01*
X150558571Y-81942381D01*
X150749048Y-81942381D01*
X150844286Y-81894762D01*
X150891905Y-81847143D01*
X150939524Y-81751905D01*
X150939524Y-80942381D01*
X151939524Y-81942381D02*
X151368095Y-81942381D01*
X151653809Y-81942381D02*
X151653809Y-80942381D01*
X151558571Y-81085238D01*
X151463333Y-81180476D01*
X151368095Y-81228095D01*
X165452976Y-88622381D02*
X165786309Y-89622381D01*
X166119643Y-88622381D01*
X166976786Y-89622381D02*
X166405357Y-89622381D01*
X166691071Y-89622381D02*
X166691071Y-88622381D01*
X166595833Y-88765238D01*
X166500595Y-88860476D01*
X166405357Y-88908095D01*
X135187976Y-89987381D02*
X135521309Y-90987381D01*
X135854643Y-89987381D01*
X136140357Y-90082619D02*
X136187976Y-90035000D01*
X136283214Y-89987381D01*
X136521310Y-89987381D01*
X136616548Y-90035000D01*
X136664167Y-90082619D01*
X136711786Y-90177857D01*
X136711786Y-90273095D01*
X136664167Y-90415952D01*
X136092738Y-90987381D01*
X136711786Y-90987381D01*
M02*
