G04 #@! TF.FileFunction,Copper,L2,Bot,Signal*
%FSLAX46Y46*%
G04 Gerber Fmt 4.6, Leading zero omitted, Abs format (unit mm)*
G04 Created by KiCad (PCBNEW 4.0.7) date 02/07/19 19:23:19*
%MOMM*%
%LPD*%
G01*
G04 APERTURE LIST*
%ADD10C,0.100000*%
%ADD11C,0.300000*%
%ADD12R,1.000000X1.000000*%
%ADD13C,1.600000*%
%ADD14O,1.600000X1.600000*%
%ADD15R,1.600000X1.600000*%
%ADD16C,0.750000*%
G04 APERTURE END LIST*
D10*
D11*
X166965000Y-99667143D02*
X166750714Y-99738571D01*
X166393571Y-99738571D01*
X166250714Y-99667143D01*
X166179285Y-99595714D01*
X166107857Y-99452857D01*
X166107857Y-99310000D01*
X166179285Y-99167143D01*
X166250714Y-99095714D01*
X166393571Y-99024286D01*
X166679285Y-98952857D01*
X166822143Y-98881429D01*
X166893571Y-98810000D01*
X166965000Y-98667143D01*
X166965000Y-98524286D01*
X166893571Y-98381429D01*
X166822143Y-98310000D01*
X166679285Y-98238571D01*
X166322143Y-98238571D01*
X166107857Y-98310000D01*
X164322143Y-99738571D02*
X164322143Y-98238571D01*
X163965000Y-98238571D01*
X163750715Y-98310000D01*
X163607857Y-98452857D01*
X163536429Y-98595714D01*
X163465000Y-98881429D01*
X163465000Y-99095714D01*
X163536429Y-99381429D01*
X163607857Y-99524286D01*
X163750715Y-99667143D01*
X163965000Y-99738571D01*
X164322143Y-99738571D01*
X161965000Y-99595714D02*
X162036429Y-99667143D01*
X162250715Y-99738571D01*
X162393572Y-99738571D01*
X162607857Y-99667143D01*
X162750715Y-99524286D01*
X162822143Y-99381429D01*
X162893572Y-99095714D01*
X162893572Y-98881429D01*
X162822143Y-98595714D01*
X162750715Y-98452857D01*
X162607857Y-98310000D01*
X162393572Y-98238571D01*
X162250715Y-98238571D01*
X162036429Y-98310000D01*
X161965000Y-98381429D01*
X163246428Y-77997857D02*
X163032142Y-78069286D01*
X162960714Y-78140714D01*
X162889285Y-78283571D01*
X162889285Y-78497857D01*
X162960714Y-78640714D01*
X163032142Y-78712143D01*
X163175000Y-78783571D01*
X163746428Y-78783571D01*
X163746428Y-77283571D01*
X163246428Y-77283571D01*
X163103571Y-77355000D01*
X163032142Y-77426429D01*
X162960714Y-77569286D01*
X162960714Y-77712143D01*
X163032142Y-77855000D01*
X163103571Y-77926429D01*
X163246428Y-77997857D01*
X163746428Y-77997857D01*
X162317857Y-77426429D02*
X162246428Y-77355000D01*
X162103571Y-77283571D01*
X161746428Y-77283571D01*
X161603571Y-77355000D01*
X161532142Y-77426429D01*
X161460714Y-77569286D01*
X161460714Y-77712143D01*
X161532142Y-77926429D01*
X162389285Y-78783571D01*
X161460714Y-78783571D01*
X160960714Y-77283571D02*
X160032143Y-77283571D01*
X160532143Y-77855000D01*
X160317857Y-77855000D01*
X160175000Y-77926429D01*
X160103571Y-77997857D01*
X160032143Y-78140714D01*
X160032143Y-78497857D01*
X160103571Y-78640714D01*
X160175000Y-78712143D01*
X160317857Y-78783571D01*
X160746429Y-78783571D01*
X160889286Y-78712143D01*
X160960714Y-78640714D01*
D12*
X163830000Y-82550000D03*
X138430000Y-92710000D03*
X137795000Y-97155000D03*
X163830000Y-86995000D03*
D13*
X154305000Y-95250000D03*
D14*
X164465000Y-95250000D03*
D13*
X141605000Y-76200000D03*
D14*
X141605000Y-86360000D03*
D13*
X151765000Y-98425000D03*
D14*
X141605000Y-98425000D03*
D13*
X156210000Y-78105000D03*
D14*
X146050000Y-78105000D03*
D15*
X147320000Y-83820000D03*
D14*
X154940000Y-91440000D03*
X147320000Y-86360000D03*
X154940000Y-88900000D03*
X147320000Y-88900000D03*
X154940000Y-86360000D03*
X147320000Y-91440000D03*
X154940000Y-83820000D03*
D12*
X163830000Y-90805000D03*
X138430000Y-88900000D03*
D16*
X154940000Y-86360000D02*
X160020000Y-86360000D01*
X160020000Y-86360000D02*
X163830000Y-82550000D01*
X138430000Y-92710000D02*
X146050000Y-92710000D01*
X146050000Y-92710000D02*
X147320000Y-91440000D01*
X137795000Y-97155000D02*
X140335000Y-97155000D01*
X140335000Y-97155000D02*
X141605000Y-98425000D01*
X156210000Y-78105000D02*
X156210000Y-79375000D01*
X151765000Y-88900000D02*
X154940000Y-88900000D01*
X151765000Y-81280000D02*
X151765000Y-88900000D01*
X154305000Y-81280000D02*
X151765000Y-81280000D01*
X156210000Y-79375000D02*
X154305000Y-81280000D01*
X154940000Y-88900000D02*
X161925000Y-88900000D01*
X161925000Y-88900000D02*
X163830000Y-86995000D01*
X151765000Y-98425000D02*
X151765000Y-97790000D01*
X151765000Y-97790000D02*
X154305000Y-95250000D01*
X147320000Y-88900000D02*
X148590000Y-88900000D01*
X148590000Y-88900000D02*
X154305000Y-94615000D01*
X154305000Y-94615000D02*
X154305000Y-95250000D01*
X163830000Y-90805000D02*
X163830000Y-94615000D01*
X163830000Y-94615000D02*
X164465000Y-95250000D01*
X146050000Y-78105000D02*
X146050000Y-80010000D01*
X144145000Y-86360000D02*
X147320000Y-86360000D01*
X144145000Y-81915000D02*
X144145000Y-86360000D01*
X146050000Y-80010000D02*
X144145000Y-81915000D01*
X141605000Y-76200000D02*
X144145000Y-76200000D01*
X144145000Y-76200000D02*
X146050000Y-78105000D01*
X141605000Y-86360000D02*
X141605000Y-89535000D01*
X140970000Y-88900000D02*
X138430000Y-88900000D01*
X141605000Y-89535000D02*
X140970000Y-88900000D01*
M02*
