G04 #@! TF.FileFunction,Legend,Top*
%FSLAX46Y46*%
G04 Gerber Fmt 4.6, Leading zero omitted, Abs format (unit mm)*
G04 Created by KiCad (PCBNEW 4.0.7) date 01/29/19 22:56:24*
%MOMM*%
%LPD*%
G01*
G04 APERTURE LIST*
%ADD10C,0.100000*%
%ADD11C,0.120000*%
%ADD12C,0.150000*%
G04 APERTURE END LIST*
D10*
D11*
X140460000Y-75505000D02*
X141260000Y-75505000D01*
X141260000Y-75505000D02*
X141260000Y-76895000D01*
X141260000Y-76895000D02*
X140460000Y-76895000D01*
X140460000Y-76895000D02*
X140460000Y-76819677D01*
X141260000Y-75940000D02*
X145260000Y-75940000D01*
X145260000Y-75940000D02*
X145260000Y-76460000D01*
X145260000Y-76460000D02*
X141260000Y-76460000D01*
X141260000Y-76000000D02*
X145260000Y-76000000D01*
X141260000Y-76120000D02*
X145260000Y-76120000D01*
X141260000Y-76240000D02*
X145260000Y-76240000D01*
X141260000Y-76360000D02*
X145260000Y-76360000D01*
X138940000Y-76200000D02*
X138940000Y-75440000D01*
X138940000Y-75440000D02*
X139700000Y-75440000D01*
X117350000Y-87055000D02*
X116550000Y-87055000D01*
X116550000Y-87055000D02*
X116550000Y-85665000D01*
X116550000Y-85665000D02*
X117350000Y-85665000D01*
X117350000Y-85665000D02*
X117350000Y-85740323D01*
X116550000Y-86620000D02*
X112550000Y-86620000D01*
X112550000Y-86620000D02*
X112550000Y-86100000D01*
X112550000Y-86100000D02*
X116550000Y-86100000D01*
X116550000Y-86560000D02*
X112550000Y-86560000D01*
X116550000Y-86440000D02*
X112550000Y-86440000D01*
X116550000Y-86320000D02*
X112550000Y-86320000D01*
X116550000Y-86200000D02*
X112550000Y-86200000D01*
X118870000Y-86360000D02*
X118870000Y-87120000D01*
X118870000Y-87120000D02*
X118110000Y-87120000D01*
X117350000Y-81975000D02*
X116550000Y-81975000D01*
X116550000Y-81975000D02*
X116550000Y-80585000D01*
X116550000Y-80585000D02*
X117350000Y-80585000D01*
X117350000Y-80585000D02*
X117350000Y-80660323D01*
X116550000Y-81540000D02*
X112550000Y-81540000D01*
X112550000Y-81540000D02*
X112550000Y-81020000D01*
X112550000Y-81020000D02*
X116550000Y-81020000D01*
X116550000Y-81480000D02*
X112550000Y-81480000D01*
X116550000Y-81360000D02*
X112550000Y-81360000D01*
X116550000Y-81240000D02*
X112550000Y-81240000D01*
X116550000Y-81120000D02*
X112550000Y-81120000D01*
X118870000Y-81280000D02*
X118870000Y-82040000D01*
X118870000Y-82040000D02*
X118110000Y-82040000D01*
X140460000Y-79315000D02*
X141260000Y-79315000D01*
X141260000Y-79315000D02*
X141260000Y-80705000D01*
X141260000Y-80705000D02*
X140460000Y-80705000D01*
X140460000Y-80705000D02*
X140460000Y-80629677D01*
X141260000Y-79750000D02*
X145260000Y-79750000D01*
X145260000Y-79750000D02*
X145260000Y-80270000D01*
X145260000Y-80270000D02*
X141260000Y-80270000D01*
X141260000Y-79810000D02*
X145260000Y-79810000D01*
X141260000Y-79930000D02*
X145260000Y-79930000D01*
X141260000Y-80050000D02*
X145260000Y-80050000D01*
X141260000Y-80170000D02*
X145260000Y-80170000D01*
X138940000Y-80010000D02*
X138940000Y-79250000D01*
X138940000Y-79250000D02*
X139700000Y-79250000D01*
X132750000Y-69560000D02*
X132750000Y-69890000D01*
X132750000Y-69890000D02*
X126330000Y-69890000D01*
X126330000Y-69890000D02*
X126330000Y-69560000D01*
X132750000Y-67600000D02*
X132750000Y-67270000D01*
X132750000Y-67270000D02*
X126330000Y-67270000D01*
X126330000Y-67270000D02*
X126330000Y-67600000D01*
X121630000Y-66640000D02*
X121960000Y-66640000D01*
X121960000Y-66640000D02*
X121960000Y-73060000D01*
X121960000Y-73060000D02*
X121630000Y-73060000D01*
X119670000Y-66640000D02*
X119340000Y-66640000D01*
X119340000Y-66640000D02*
X119340000Y-73060000D01*
X119340000Y-73060000D02*
X119670000Y-73060000D01*
X125060000Y-89190000D02*
X125060000Y-88860000D01*
X125060000Y-88860000D02*
X131480000Y-88860000D01*
X131480000Y-88860000D02*
X131480000Y-89190000D01*
X125060000Y-91150000D02*
X125060000Y-91480000D01*
X125060000Y-91480000D02*
X131480000Y-91480000D01*
X131480000Y-91480000D02*
X131480000Y-91150000D01*
X131810000Y-74870000D02*
G75*
G02X129810000Y-74870000I-1000000J0D01*
G01*
X129810000Y-74870000D02*
X128160000Y-74870000D01*
X128160000Y-74870000D02*
X128160000Y-85150000D01*
X128160000Y-85150000D02*
X133460000Y-85150000D01*
X133460000Y-85150000D02*
X133460000Y-74870000D01*
X133460000Y-74870000D02*
X131810000Y-74870000D01*
X125670000Y-74810000D02*
X125670000Y-85210000D01*
X125670000Y-85210000D02*
X135950000Y-85210000D01*
X135950000Y-85210000D02*
X135950000Y-74810000D01*
X135950000Y-74810000D02*
X125670000Y-74810000D01*
X117350000Y-78165000D02*
X116550000Y-78165000D01*
X116550000Y-78165000D02*
X116550000Y-76775000D01*
X116550000Y-76775000D02*
X117350000Y-76775000D01*
X117350000Y-76775000D02*
X117350000Y-76850323D01*
X116550000Y-77730000D02*
X112550000Y-77730000D01*
X112550000Y-77730000D02*
X112550000Y-77210000D01*
X112550000Y-77210000D02*
X116550000Y-77210000D01*
X116550000Y-77670000D02*
X112550000Y-77670000D01*
X116550000Y-77550000D02*
X112550000Y-77550000D01*
X116550000Y-77430000D02*
X112550000Y-77430000D01*
X116550000Y-77310000D02*
X112550000Y-77310000D01*
X118870000Y-77470000D02*
X118870000Y-78230000D01*
X118870000Y-78230000D02*
X118110000Y-78230000D01*
X140460000Y-85665000D02*
X141260000Y-85665000D01*
X141260000Y-85665000D02*
X141260000Y-87055000D01*
X141260000Y-87055000D02*
X140460000Y-87055000D01*
X140460000Y-87055000D02*
X140460000Y-86979677D01*
X141260000Y-86100000D02*
X145260000Y-86100000D01*
X145260000Y-86100000D02*
X145260000Y-86620000D01*
X145260000Y-86620000D02*
X141260000Y-86620000D01*
X141260000Y-86160000D02*
X145260000Y-86160000D01*
X141260000Y-86280000D02*
X145260000Y-86280000D01*
X141260000Y-86400000D02*
X145260000Y-86400000D01*
X141260000Y-86520000D02*
X145260000Y-86520000D01*
X138940000Y-86360000D02*
X138940000Y-85600000D01*
X138940000Y-85600000D02*
X139700000Y-85600000D01*
D12*
X139989643Y-74636429D02*
X140751548Y-74636429D01*
X140370596Y-75017381D02*
X140370596Y-74255476D01*
X141084881Y-74017381D02*
X141418214Y-75017381D01*
X141751548Y-74017381D01*
X142513453Y-74969762D02*
X142418215Y-75017381D01*
X142227738Y-75017381D01*
X142132500Y-74969762D01*
X142084881Y-74922143D01*
X142037262Y-74826905D01*
X142037262Y-74541190D01*
X142084881Y-74445952D01*
X142132500Y-74398333D01*
X142227738Y-74350714D01*
X142418215Y-74350714D01*
X142513453Y-74398333D01*
X143370596Y-74969762D02*
X143275358Y-75017381D01*
X143084881Y-75017381D01*
X142989643Y-74969762D01*
X142942024Y-74922143D01*
X142894405Y-74826905D01*
X142894405Y-74541190D01*
X142942024Y-74445952D01*
X142989643Y-74398333D01*
X143084881Y-74350714D01*
X143275358Y-74350714D01*
X143370596Y-74398333D01*
X144322977Y-75017381D02*
X143751548Y-75017381D01*
X144037262Y-75017381D02*
X144037262Y-74017381D01*
X143942024Y-74160238D01*
X143846786Y-74255476D01*
X143751548Y-74303095D01*
X113534643Y-88066429D02*
X114296548Y-88066429D01*
X114629881Y-87447381D02*
X114963214Y-88447381D01*
X115296548Y-87447381D01*
X116058453Y-88399762D02*
X115963215Y-88447381D01*
X115772738Y-88447381D01*
X115677500Y-88399762D01*
X115629881Y-88352143D01*
X115582262Y-88256905D01*
X115582262Y-87971190D01*
X115629881Y-87875952D01*
X115677500Y-87828333D01*
X115772738Y-87780714D01*
X115963215Y-87780714D01*
X116058453Y-87828333D01*
X116915596Y-88399762D02*
X116820358Y-88447381D01*
X116629881Y-88447381D01*
X116534643Y-88399762D01*
X116487024Y-88352143D01*
X116439405Y-88256905D01*
X116439405Y-87971190D01*
X116487024Y-87875952D01*
X116534643Y-87828333D01*
X116629881Y-87780714D01*
X116820358Y-87780714D01*
X116915596Y-87828333D01*
X117867977Y-88447381D02*
X117296548Y-88447381D01*
X117582262Y-88447381D02*
X117582262Y-87447381D01*
X117487024Y-87590238D01*
X117391786Y-87685476D01*
X117296548Y-87733095D01*
X113344167Y-82415000D02*
X113248929Y-82367381D01*
X113106072Y-82367381D01*
X112963214Y-82415000D01*
X112867976Y-82510238D01*
X112820357Y-82605476D01*
X112772738Y-82795952D01*
X112772738Y-82938810D01*
X112820357Y-83129286D01*
X112867976Y-83224524D01*
X112963214Y-83319762D01*
X113106072Y-83367381D01*
X113201310Y-83367381D01*
X113344167Y-83319762D01*
X113391786Y-83272143D01*
X113391786Y-82938810D01*
X113201310Y-82938810D01*
X113820357Y-83367381D02*
X113820357Y-82700714D01*
X113820357Y-82891190D02*
X113867976Y-82795952D01*
X113915595Y-82748333D01*
X114010833Y-82700714D01*
X114106072Y-82700714D01*
X114582262Y-83367381D02*
X114487024Y-83319762D01*
X114439405Y-83272143D01*
X114391786Y-83176905D01*
X114391786Y-82891190D01*
X114439405Y-82795952D01*
X114487024Y-82748333D01*
X114582262Y-82700714D01*
X114725120Y-82700714D01*
X114820358Y-82748333D01*
X114867977Y-82795952D01*
X114915596Y-82891190D01*
X114915596Y-83176905D01*
X114867977Y-83272143D01*
X114820358Y-83319762D01*
X114725120Y-83367381D01*
X114582262Y-83367381D01*
X115772739Y-82700714D02*
X115772739Y-83367381D01*
X115344167Y-82700714D02*
X115344167Y-83224524D01*
X115391786Y-83319762D01*
X115487024Y-83367381D01*
X115629882Y-83367381D01*
X115725120Y-83319762D01*
X115772739Y-83272143D01*
X116248929Y-82700714D02*
X116248929Y-83367381D01*
X116248929Y-82795952D02*
X116296548Y-82748333D01*
X116391786Y-82700714D01*
X116534644Y-82700714D01*
X116629882Y-82748333D01*
X116677501Y-82843571D01*
X116677501Y-83367381D01*
X117582263Y-83367381D02*
X117582263Y-82367381D01*
X117582263Y-83319762D02*
X117487025Y-83367381D01*
X117296548Y-83367381D01*
X117201310Y-83319762D01*
X117153691Y-83272143D01*
X117106072Y-83176905D01*
X117106072Y-82891190D01*
X117153691Y-82795952D01*
X117201310Y-82748333D01*
X117296548Y-82700714D01*
X117487025Y-82700714D01*
X117582263Y-82748333D01*
X118582263Y-83367381D02*
X118010834Y-83367381D01*
X118296548Y-83367381D02*
X118296548Y-82367381D01*
X118201310Y-82510238D01*
X118106072Y-82605476D01*
X118010834Y-82653095D01*
X141561071Y-77827381D02*
X141751548Y-77827381D01*
X141846786Y-77875000D01*
X141942024Y-77970238D01*
X141989643Y-78160714D01*
X141989643Y-78494048D01*
X141942024Y-78684524D01*
X141846786Y-78779762D01*
X141751548Y-78827381D01*
X141561071Y-78827381D01*
X141465833Y-78779762D01*
X141370595Y-78684524D01*
X141322976Y-78494048D01*
X141322976Y-78160714D01*
X141370595Y-77970238D01*
X141465833Y-77875000D01*
X141561071Y-77827381D01*
X142942024Y-78827381D02*
X142370595Y-78827381D01*
X142656309Y-78827381D02*
X142656309Y-77827381D01*
X142561071Y-77970238D01*
X142465833Y-78065476D01*
X142370595Y-78113095D01*
X129373334Y-71342381D02*
X129040000Y-70866190D01*
X128801905Y-71342381D02*
X128801905Y-70342381D01*
X129182858Y-70342381D01*
X129278096Y-70390000D01*
X129325715Y-70437619D01*
X129373334Y-70532857D01*
X129373334Y-70675714D01*
X129325715Y-70770952D01*
X129278096Y-70818571D01*
X129182858Y-70866190D01*
X128801905Y-70866190D01*
X130325715Y-71342381D02*
X129754286Y-71342381D01*
X130040000Y-71342381D02*
X130040000Y-70342381D01*
X129944762Y-70485238D01*
X129849524Y-70580476D01*
X129754286Y-70628095D01*
X123412381Y-70016666D02*
X122936190Y-70350000D01*
X123412381Y-70588095D02*
X122412381Y-70588095D01*
X122412381Y-70207142D01*
X122460000Y-70111904D01*
X122507619Y-70064285D01*
X122602857Y-70016666D01*
X122745714Y-70016666D01*
X122840952Y-70064285D01*
X122888571Y-70111904D01*
X122936190Y-70207142D01*
X122936190Y-70588095D01*
X122507619Y-69635714D02*
X122460000Y-69588095D01*
X122412381Y-69492857D01*
X122412381Y-69254761D01*
X122460000Y-69159523D01*
X122507619Y-69111904D01*
X122602857Y-69064285D01*
X122698095Y-69064285D01*
X122840952Y-69111904D01*
X123412381Y-69683333D01*
X123412381Y-69064285D01*
X128103334Y-88312381D02*
X127770000Y-87836190D01*
X127531905Y-88312381D02*
X127531905Y-87312381D01*
X127912858Y-87312381D01*
X128008096Y-87360000D01*
X128055715Y-87407619D01*
X128103334Y-87502857D01*
X128103334Y-87645714D01*
X128055715Y-87740952D01*
X128008096Y-87788571D01*
X127912858Y-87836190D01*
X127531905Y-87836190D01*
X128436667Y-87312381D02*
X129055715Y-87312381D01*
X128722381Y-87693333D01*
X128865239Y-87693333D01*
X128960477Y-87740952D01*
X129008096Y-87788571D01*
X129055715Y-87883810D01*
X129055715Y-88121905D01*
X129008096Y-88217143D01*
X128960477Y-88264762D01*
X128865239Y-88312381D01*
X128579524Y-88312381D01*
X128484286Y-88264762D01*
X128436667Y-88217143D01*
X130048095Y-73322381D02*
X130048095Y-74131905D01*
X130095714Y-74227143D01*
X130143333Y-74274762D01*
X130238571Y-74322381D01*
X130429048Y-74322381D01*
X130524286Y-74274762D01*
X130571905Y-74227143D01*
X130619524Y-74131905D01*
X130619524Y-73322381D01*
X131619524Y-74322381D02*
X131048095Y-74322381D01*
X131333809Y-74322381D02*
X131333809Y-73322381D01*
X131238571Y-73465238D01*
X131143333Y-73560476D01*
X131048095Y-73608095D01*
X114867976Y-78557381D02*
X115201309Y-79557381D01*
X115534643Y-78557381D01*
X116391786Y-79557381D02*
X115820357Y-79557381D01*
X116106071Y-79557381D02*
X116106071Y-78557381D01*
X116010833Y-78700238D01*
X115915595Y-78795476D01*
X115820357Y-78843095D01*
X141322976Y-84177381D02*
X141656309Y-85177381D01*
X141989643Y-84177381D01*
X142275357Y-84272619D02*
X142322976Y-84225000D01*
X142418214Y-84177381D01*
X142656310Y-84177381D01*
X142751548Y-84225000D01*
X142799167Y-84272619D01*
X142846786Y-84367857D01*
X142846786Y-84463095D01*
X142799167Y-84605952D01*
X142227738Y-85177381D01*
X142846786Y-85177381D01*
M02*
