G04 #@! TF.FileFunction,Copper,L2,Bot,Signal*
%FSLAX46Y46*%
G04 Gerber Fmt 4.6, Leading zero omitted, Abs format (unit mm)*
G04 Created by KiCad (PCBNEW 4.0.7) date 01/29/19 22:56:24*
%MOMM*%
%LPD*%
G01*
G04 APERTURE LIST*
%ADD10C,0.100000*%
%ADD11C,0.300000*%
%ADD12R,1.000000X1.000000*%
%ADD13C,1.600000*%
%ADD14O,1.600000X1.600000*%
%ADD15R,1.600000X1.600000*%
%ADD16C,0.750000*%
G04 APERTURE END LIST*
D10*
D11*
X141608571Y-90848571D02*
X141608571Y-89348571D01*
X139822857Y-90420000D02*
X139108571Y-90420000D01*
X139965714Y-90848571D02*
X139465714Y-89348571D01*
X138965714Y-90848571D01*
X137394286Y-90420000D02*
X136680000Y-90420000D01*
X137537143Y-90848571D02*
X137037143Y-89348571D01*
X136537143Y-90848571D01*
X135180000Y-90705714D02*
X135251429Y-90777143D01*
X135465715Y-90848571D01*
X135608572Y-90848571D01*
X135822857Y-90777143D01*
X135965715Y-90634286D01*
X136037143Y-90491429D01*
X136108572Y-90205714D01*
X136108572Y-89991429D01*
X136037143Y-89705714D01*
X135965715Y-89562857D01*
X135822857Y-89420000D01*
X135608572Y-89348571D01*
X135465715Y-89348571D01*
X135251429Y-89420000D01*
X135180000Y-89491429D01*
X141021428Y-68472857D02*
X140807142Y-68544286D01*
X140735714Y-68615714D01*
X140664285Y-68758571D01*
X140664285Y-68972857D01*
X140735714Y-69115714D01*
X140807142Y-69187143D01*
X140950000Y-69258571D01*
X141521428Y-69258571D01*
X141521428Y-67758571D01*
X141021428Y-67758571D01*
X140878571Y-67830000D01*
X140807142Y-67901429D01*
X140735714Y-68044286D01*
X140735714Y-68187143D01*
X140807142Y-68330000D01*
X140878571Y-68401429D01*
X141021428Y-68472857D01*
X141521428Y-68472857D01*
X140092857Y-67901429D02*
X140021428Y-67830000D01*
X139878571Y-67758571D01*
X139521428Y-67758571D01*
X139378571Y-67830000D01*
X139307142Y-67901429D01*
X139235714Y-68044286D01*
X139235714Y-68187143D01*
X139307142Y-68401429D01*
X140164285Y-69258571D01*
X139235714Y-69258571D01*
X138735714Y-67758571D02*
X137807143Y-67758571D01*
X138307143Y-68330000D01*
X138092857Y-68330000D01*
X137950000Y-68401429D01*
X137878571Y-68472857D01*
X137807143Y-68615714D01*
X137807143Y-68972857D01*
X137878571Y-69115714D01*
X137950000Y-69187143D01*
X138092857Y-69258571D01*
X138521429Y-69258571D01*
X138664286Y-69187143D01*
X138735714Y-69115714D01*
D12*
X139700000Y-76200000D03*
X118110000Y-86360000D03*
X118110000Y-81280000D03*
X139700000Y-80010000D03*
D13*
X133350000Y-68580000D03*
D14*
X125730000Y-68580000D03*
D13*
X120650000Y-66040000D03*
D14*
X120650000Y-73660000D03*
D13*
X124460000Y-90170000D03*
D14*
X132080000Y-90170000D03*
D15*
X127000000Y-76200000D03*
D14*
X134620000Y-83820000D03*
X127000000Y-78740000D03*
X134620000Y-81280000D03*
X127000000Y-81280000D03*
X134620000Y-78740000D03*
X127000000Y-83820000D03*
X134620000Y-76200000D03*
D12*
X118110000Y-77470000D03*
X139700000Y-86360000D03*
D16*
X134620000Y-78740000D02*
X137160000Y-78740000D01*
X137160000Y-78740000D02*
X139700000Y-76200000D01*
X127000000Y-83820000D02*
X120650000Y-83820000D01*
X120650000Y-83820000D02*
X118110000Y-86360000D01*
X127000000Y-81280000D02*
X118110000Y-81280000D01*
X133350000Y-68580000D02*
X133350000Y-71120000D01*
X132080000Y-78740000D02*
X134620000Y-81280000D01*
X132080000Y-72390000D02*
X132080000Y-78740000D01*
X133350000Y-71120000D02*
X132080000Y-72390000D01*
X134620000Y-81280000D02*
X138430000Y-81280000D01*
X138430000Y-81280000D02*
X139700000Y-80010000D01*
X125730000Y-68580000D02*
X125730000Y-71120000D01*
X129540000Y-72390000D02*
X129540000Y-78740000D01*
X128270000Y-72390000D02*
X129540000Y-72390000D01*
X127000000Y-72390000D02*
X128270000Y-72390000D01*
X125730000Y-71120000D02*
X127000000Y-72390000D01*
X120650000Y-66040000D02*
X123190000Y-66040000D01*
X123190000Y-66040000D02*
X125730000Y-68580000D01*
X127000000Y-78740000D02*
X129540000Y-78740000D01*
X124460000Y-87630000D02*
X124460000Y-90170000D01*
X129540000Y-78740000D02*
X129540000Y-86360000D01*
X129540000Y-86360000D02*
X128270000Y-87630000D01*
X128270000Y-87630000D02*
X124460000Y-87630000D01*
X120650000Y-73660000D02*
X120650000Y-74930000D01*
X120650000Y-74930000D02*
X118110000Y-77470000D01*
X139700000Y-86360000D02*
X135890000Y-86360000D01*
X135890000Y-86360000D02*
X132080000Y-90170000D01*
M02*
