G04 #@! TF.FileFunction,Copper,L2,Bot,Signal*
%FSLAX46Y46*%
G04 Gerber Fmt 4.6, Leading zero omitted, Abs format (unit mm)*
G04 Created by KiCad (PCBNEW 4.0.7) date 01/25/19 00:07:42*
%MOMM*%
%LPD*%
G01*
G04 APERTURE LIST*
%ADD10C,0.100000*%
%ADD11C,0.300000*%
%ADD12R,1.000000X1.000000*%
%ADD13R,1.600000X1.600000*%
%ADD14O,1.600000X1.600000*%
%ADD15C,0.750000*%
G04 APERTURE END LIST*
D10*
D11*
X159888572Y-102278571D02*
X159888572Y-100778571D01*
X159031429Y-102278571D01*
X159031429Y-100778571D01*
X158317143Y-101707143D02*
X157174286Y-101707143D01*
X156460000Y-102278571D02*
X156460000Y-100778571D01*
X154317143Y-100778571D02*
X154031429Y-100778571D01*
X153888571Y-100850000D01*
X153745714Y-100992857D01*
X153674286Y-101278571D01*
X153674286Y-101778571D01*
X153745714Y-102064286D01*
X153888571Y-102207143D01*
X154031429Y-102278571D01*
X154317143Y-102278571D01*
X154460000Y-102207143D01*
X154602857Y-102064286D01*
X154674286Y-101778571D01*
X154674286Y-101278571D01*
X154602857Y-100992857D01*
X154460000Y-100850000D01*
X154317143Y-100778571D01*
X152317142Y-102278571D02*
X153031428Y-102278571D01*
X153031428Y-100778571D01*
X158801428Y-84982857D02*
X158587142Y-85054286D01*
X158515714Y-85125714D01*
X158444285Y-85268571D01*
X158444285Y-85482857D01*
X158515714Y-85625714D01*
X158587142Y-85697143D01*
X158730000Y-85768571D01*
X159301428Y-85768571D01*
X159301428Y-84268571D01*
X158801428Y-84268571D01*
X158658571Y-84340000D01*
X158587142Y-84411429D01*
X158515714Y-84554286D01*
X158515714Y-84697143D01*
X158587142Y-84840000D01*
X158658571Y-84911429D01*
X158801428Y-84982857D01*
X159301428Y-84982857D01*
X157872857Y-84411429D02*
X157801428Y-84340000D01*
X157658571Y-84268571D01*
X157301428Y-84268571D01*
X157158571Y-84340000D01*
X157087142Y-84411429D01*
X157015714Y-84554286D01*
X157015714Y-84697143D01*
X157087142Y-84911429D01*
X157944285Y-85768571D01*
X157015714Y-85768571D01*
X156515714Y-84268571D02*
X155587143Y-84268571D01*
X156087143Y-84840000D01*
X155872857Y-84840000D01*
X155730000Y-84911429D01*
X155658571Y-84982857D01*
X155587143Y-85125714D01*
X155587143Y-85482857D01*
X155658571Y-85625714D01*
X155730000Y-85697143D01*
X155872857Y-85768571D01*
X156301429Y-85768571D01*
X156444286Y-85697143D01*
X156515714Y-85625714D01*
D12*
X158750000Y-88900000D03*
X140970000Y-96520000D03*
X140970000Y-86360000D03*
X140970000Y-91440000D03*
X158750000Y-97790000D03*
D13*
X146050000Y-88900000D03*
D14*
X153670000Y-96520000D03*
X146050000Y-91440000D03*
X153670000Y-93980000D03*
X146050000Y-93980000D03*
X153670000Y-91440000D03*
X146050000Y-96520000D03*
X153670000Y-88900000D03*
D15*
X158750000Y-88900000D02*
X156210000Y-88900000D01*
X156210000Y-88900000D02*
X153670000Y-91440000D01*
X140970000Y-96520000D02*
X146050000Y-96520000D01*
X146050000Y-91440000D02*
X140970000Y-86360000D01*
X140970000Y-91440000D02*
X143510000Y-91440000D01*
X143510000Y-91440000D02*
X146050000Y-93980000D01*
X153670000Y-93980000D02*
X156210000Y-93980000D01*
X158750000Y-96520000D02*
X158750000Y-97790000D01*
X156210000Y-93980000D02*
X158750000Y-96520000D01*
M02*
